<?xml version="1.0" encoding="UTF-8"?>
<svg xmlns="http://www.w3.org/2000/svg" version="1.1" width="200px" height="200px" viewBox='300 150 500 1000' style="shape-rendering:geometricPrecision; text-rendering:geometricPrecision; image-rendering:optimizeQuality; fill-rule:evenodd; clip-rule:evenodd" xmlns:xlink="http://www.w3.org/1999/xlink">
<path style="opacity:1" d="M 556.5,148.5 C 560.657,149.449 564.99,150.116 569.5,150.5C 573.341,152.003 577.341,153.336 581.5,154.5C 581.842,155.338 582.508,155.672 583.5,155.5C 588.64,158.91 593.64,162.577 598.5,166.5C 601.174,170.838 603.841,175.172 606.5,179.5C 606.595,181.786 607.262,183.786 608.5,185.5C 609.035,189.819 609.535,194.152 610,198.5C 610.333,269.167 610.667,339.833 611,410.5C 611.513,409.473 612.013,408.473 612.5,407.5C 613.906,407.027 614.573,406.027 614.5,404.5C 633.783,379.867 657.45,360.867 685.5,347.5C 702.417,341.725 719.75,340.059 737.5,342.5C 740.589,343.785 743.922,344.451 747.5,344.5C 748.209,345.404 749.209,345.737 750.5,345.5C 752.302,346.458 754.302,347.125 756.5,347.5C 759.256,349.204 762.256,350.537 765.5,351.5C 765.842,352.338 766.508,352.672 767.5,352.5C 769.118,354.316 771.118,355.649 773.5,356.5C 774.945,358.063 776.611,359.396 778.5,360.5C 782.167,364.833 786.167,368.833 790.5,372.5C 792.255,375.68 794.255,378.68 796.5,381.5C 796.427,383.027 797.094,384.027 798.5,384.5C 799.326,387.485 800.659,390.151 802.5,392.5C 802.992,394.819 803.992,396.819 805.5,398.5C 805.328,399.492 805.662,400.158 806.5,400.5C 806.263,401.791 806.596,402.791 807.5,403.5C 807.402,405.553 808.069,407.22 809.5,408.5C 809.232,410.099 809.566,411.432 810.5,412.5C 810.595,414.786 811.262,416.786 812.5,418.5C 812.263,419.791 812.596,420.791 813.5,421.5C 813.898,425.761 814.898,429.761 816.5,433.5C 816.232,435.099 816.566,436.432 817.5,437.5C 817.871,443.076 818.871,448.409 820.5,453.5C 821.567,466.669 822.9,479.669 824.5,492.5C 825.782,520.501 825.782,548.501 824.5,576.5C 822.97,585.3 821.97,594.3 821.5,603.5C 820.527,605.948 820.194,608.615 820.5,611.5C 819.549,612.919 819.216,614.585 819.5,616.5C 818.01,620.942 817.01,625.609 816.5,630.5C 815.232,632.905 814.565,635.572 814.5,638.5C 813.566,639.568 813.232,640.901 813.5,642.5C 812.596,643.209 812.263,644.209 812.5,645.5C 811.566,646.568 811.232,647.901 811.5,649.5C 810.596,650.209 810.263,651.209 810.5,652.5C 809.262,654.214 808.595,656.214 808.5,658.5C 806.928,661.215 805.928,664.215 805.5,667.5C 804.596,668.209 804.263,669.209 804.5,670.5C 803.069,671.78 802.402,673.447 802.5,675.5C 801.662,675.842 801.328,676.508 801.5,677.5C 799.707,679.426 798.707,681.759 798.5,684.5C 797.662,684.842 797.328,685.508 797.5,686.5C 796.069,687.78 795.402,689.447 795.5,691.5C 794.094,691.973 793.427,692.973 793.5,694.5C 792.326,695.514 791.66,696.847 791.5,698.5C 790.662,698.842 790.328,699.508 790.5,700.5C 789.094,700.973 788.427,701.973 788.5,703.5C 787.662,703.842 787.328,704.508 787.5,705.5C 786.094,705.973 785.427,706.973 785.5,708.5C 784.662,708.842 784.328,709.508 784.5,710.5C 783.094,710.973 782.427,711.973 782.5,713.5C 781.094,713.973 780.427,714.973 780.5,716.5C 779.833,716.5 779.5,716.833 779.5,717.5C 778.662,717.842 778.328,718.508 778.5,719.5C 777.833,719.5 777.5,719.833 777.5,720.5C 776.094,720.973 775.427,721.973 775.5,723.5C 774.833,723.5 774.5,723.833 774.5,724.5C 773.094,724.973 772.427,725.973 772.5,727.5C 771.833,727.5 771.5,727.833 771.5,728.5C 770.833,728.5 770.5,728.833 770.5,729.5C 769.833,729.5 769.5,729.833 769.5,730.5C 768.662,730.842 768.328,731.508 768.5,732.5C 767.833,732.5 767.5,732.833 767.5,733.5C 766.833,733.5 766.5,733.833 766.5,734.5C 765.833,734.5 765.5,734.833 765.5,735.5C 764.833,735.5 764.5,735.833 764.5,736.5C 763.833,736.5 763.5,736.833 763.5,737.5C 762.833,737.5 762.5,737.833 762.5,738.5C 761.833,738.5 761.5,738.833 761.5,739.5C 760.833,739.5 760.5,739.833 760.5,740.5C 759.833,740.5 759.5,740.833 759.5,741.5C 758.833,741.5 758.5,741.833 758.5,742.5C 757.833,742.5 757.5,742.833 757.5,743.5C 756.833,743.5 756.5,743.833 756.5,744.5C 755.833,744.5 755.5,744.833 755.5,745.5C 754.833,745.5 754.5,745.833 754.5,746.5C 753.833,746.5 753.5,746.833 753.5,747.5C 751.246,748.124 749.579,749.457 748.5,751.5C 747.833,751.5 747.5,751.833 747.5,752.5C 746.833,752.5 746.5,752.833 746.5,753.5C 745.508,753.328 744.842,753.662 744.5,754.5C 743.833,754.5 743.5,754.833 743.5,755.5C 742.833,755.5 742.5,755.833 742.5,756.5C 740.973,756.427 739.973,757.094 739.5,758.5C 738.833,758.5 738.5,758.833 738.5,759.5C 736.973,759.427 735.973,760.094 735.5,761.5C 734.833,761.5 734.5,761.833 734.5,762.5C 733.508,762.328 732.842,762.662 732.5,763.5C 731.833,763.5 731.5,763.833 731.5,764.5C 730.508,764.328 729.842,764.662 729.5,765.5C 728.833,765.5 728.5,765.833 728.5,766.5C 727.508,766.328 726.842,766.662 726.5,767.5C 724.973,767.427 723.973,768.094 723.5,769.5C 722.508,769.328 721.842,769.662 721.5,770.5C 719.847,770.66 718.514,771.326 717.5,772.5C 716.833,772.5 716.5,772.833 716.5,773.5C 713.088,774.042 710.088,775.375 707.5,777.5C 706.508,777.328 705.842,777.662 705.5,778.5C 704.508,778.328 703.842,778.662 703.5,779.5C 702.209,779.263 701.209,779.596 700.5,780.5C 699.508,780.328 698.842,780.662 698.5,781.5C 696.214,781.595 694.214,782.262 692.5,783.5C 687.928,784.388 683.595,785.721 679.5,787.5C 675.878,787.322 672.544,787.989 669.5,789.5C 664.972,789.77 660.639,790.437 656.5,791.5C 651.807,791.54 647.141,791.873 642.5,792.5C 642.737,791.209 642.404,790.209 641.5,789.5C 641.768,787.901 641.434,786.568 640.5,785.5C 640.706,782.505 640.04,779.838 638.5,777.5C 638.414,776.504 638.748,775.671 639.5,775C 650.682,772.413 660.349,767.246 668.5,759.5C 671.5,758.5 673.5,756.5 674.5,753.5C 676.262,752.738 677.262,751.404 677.5,749.5C 678.906,749.027 679.573,748.027 679.5,746.5C 680.338,746.158 680.672,745.492 680.5,744.5C 683.874,740.419 686.207,735.753 687.5,730.5C 689.267,728.208 690.267,725.542 690.5,722.5C 691.924,720.485 692.59,718.152 692.5,715.5C 693.404,714.791 693.737,713.791 693.5,712.5C 695.04,710.162 695.706,707.495 695.5,704.5C 696.434,703.432 696.768,702.099 696.5,700.5C 697.785,697.411 698.451,694.078 698.5,690.5C 700.229,684.75 701.229,678.75 701.5,672.5C 703.217,664.055 704.217,655.388 704.5,646.5C 706.528,630.381 707.528,614.047 707.5,597.5C 708.833,566.833 708.833,536.167 707.5,505.5C 707.819,500.637 707.486,495.97 706.5,491.5C 706.663,484.938 705.996,478.605 704.5,472.5C 704.795,470.265 704.461,468.265 703.5,466.5C 703.461,462.267 702.795,458.267 701.5,454.5C 701.768,452.901 701.434,451.568 700.5,450.5C 700.58,447.219 699.913,444.219 698.5,441.5C 698.279,438.933 697.612,436.599 696.5,434.5C 696.204,432.597 695.537,430.93 694.5,429.5C 694.008,427.181 693.008,425.181 691.5,423.5C 690.921,420.669 689.588,418.336 687.5,416.5C 687.573,414.973 686.906,413.973 685.5,413.5C 683.177,409.676 679.844,407.343 675.5,406.5C 675.158,405.662 674.492,405.328 673.5,405.5C 671.162,403.96 668.495,403.294 665.5,403.5C 662.5,402.167 659.5,402.167 656.5,403.5C 653.447,403.111 650.78,403.777 648.5,405.5C 645.911,405.461 643.911,406.461 642.5,408.5C 640.973,408.427 639.973,409.094 639.5,410.5C 638.833,410.5 638.5,410.833 638.5,411.5C 637.833,411.5 637.5,411.833 637.5,412.5C 633.5,414.5 630.5,417.5 628.5,421.5C 627.833,421.5 627.5,421.833 627.5,422.5C 626.833,422.5 626.5,422.833 626.5,423.5C 625.662,423.842 625.328,424.508 625.5,425.5C 624.833,425.5 624.5,425.833 624.5,426.5C 623.833,426.5 623.5,426.833 623.5,427.5C 622.662,427.842 622.328,428.508 622.5,429.5C 621.833,429.5 621.5,429.833 621.5,430.5C 620.662,430.842 620.328,431.508 620.5,432.5C 619.833,432.5 619.5,432.833 619.5,433.5C 618.662,433.842 618.328,434.508 618.5,435.5C 617.662,435.842 617.328,436.508 617.5,437.5C 616.094,437.973 615.427,438.973 615.5,440.5C 614.662,440.842 614.328,441.508 614.5,442.5C 613.833,442.5 613.5,442.833 613.5,443.5C 612.662,443.842 612.328,444.508 612.5,445.5C 611.833,445.5 611.5,445.833 611.5,446.5C 610.667,531.666 610.167,616.999 610,702.5C 609.498,705.513 608.998,708.513 608.5,711.5C 607.662,711.842 607.328,712.508 607.5,713.5C 606.662,713.842 606.328,714.508 606.5,715.5C 605.094,715.973 604.427,716.973 604.5,718.5C 603.833,718.5 603.5,718.833 603.5,719.5C 602.833,719.5 602.5,719.833 602.5,720.5C 601.833,720.5 601.5,720.833 601.5,721.5C 600.5,721.833 599.833,722.5 599.5,723.5C 598.833,723.5 598.5,723.833 598.5,724.5C 597.833,724.5 597.5,724.833 597.5,725.5C 596.508,725.328 595.842,725.662 595.5,726.5C 594.833,726.5 594.5,726.833 594.5,727.5C 593.508,727.328 592.842,727.662 592.5,728.5C 591.508,728.328 590.842,728.662 590.5,729.5C 589.508,729.328 588.842,729.662 588.5,730.5C 587.508,730.328 586.842,730.662 586.5,731.5C 584.214,731.595 582.214,732.262 580.5,733.5C 577.572,733.565 574.905,734.232 572.5,735.5C 559.5,736.833 546.5,736.833 533.5,735.5C 532.432,734.566 531.099,734.232 529.5,734.5C 527.401,733.388 525.067,732.721 522.5,732.5C 521.22,731.069 519.553,730.402 517.5,730.5C 516.486,729.326 515.153,728.66 513.5,728.5C 513.158,727.662 512.492,727.328 511.5,727.5C 511.027,726.094 510.027,725.427 508.5,725.5C 505.471,722.141 502.471,718.808 499.5,715.5C 499.068,714.29 498.401,713.29 497.5,712.5C 497.204,710.597 496.537,708.93 495.5,707.5C 494.55,683.522 494.217,659.522 494.5,635.5C 490.958,635.187 487.625,635.521 484.5,636.5C 480.878,636.322 477.544,636.989 474.5,638.5C 473.508,638.328 472.842,638.662 472.5,639.5C 471.209,639.263 470.209,639.596 469.5,640.5C 468.508,640.328 467.842,640.662 467.5,641.5C 465.62,641.229 464.287,641.896 463.5,643.5C 462.508,643.328 461.842,643.662 461.5,644.5C 460.508,644.328 459.842,644.662 459.5,645.5C 457.973,645.427 456.973,646.094 456.5,647.5C 454.973,647.427 453.973,648.094 453.5,649.5C 452.833,649.5 452.5,649.833 452.5,650.5C 451.833,650.5 451.5,650.833 451.5,651.5C 450.508,651.328 449.842,651.662 449.5,652.5C 448.5,652.833 447.833,653.5 447.5,654.5C 446.833,654.5 446.5,654.833 446.5,655.5C 445.833,655.5 445.5,655.833 445.5,656.5C 444.833,656.5 444.5,656.833 444.5,657.5C 442.738,658.262 441.738,659.596 441.5,661.5C 440.833,661.5 440.5,661.833 440.5,662.5C 439.833,662.5 439.5,662.833 439.5,663.5C 438.094,663.973 437.427,664.973 437.5,666.5C 436.833,666.5 436.5,666.833 436.5,667.5C 435.662,667.842 435.328,668.508 435.5,669.5C 434.833,669.5 434.5,669.833 434.5,670.5C 433.662,670.842 433.328,671.508 433.5,672.5C 432.833,672.5 432.5,672.833 432.5,673.5C 431.662,673.842 431.328,674.508 431.5,675.5C 430.662,675.842 430.328,676.508 430.5,677.5C 429.662,677.842 429.328,678.508 429.5,679.5C 427.461,680.911 426.461,682.911 426.5,685.5C 425.662,685.842 425.328,686.508 425.5,687.5C 424.662,687.842 424.328,688.508 424.5,689.5C 423.662,689.842 423.328,690.508 423.5,691.5C 422.596,692.209 422.263,693.209 422.5,694.5C 420.733,696.792 419.733,699.458 419.5,702.5C 418.076,704.515 417.41,706.848 417.5,709.5C 416.076,711.515 415.41,713.848 415.5,716.5C 414.215,719.589 413.549,722.922 413.5,726.5C 412.549,727.919 412.216,729.585 412.5,731.5C 411.518,734.962 411.185,738.629 411.5,742.5C 408.92,760.497 408.92,778.497 411.5,796.5C 411.182,801.032 411.515,805.366 412.5,809.5C 412.344,813.764 413.011,817.764 414.5,821.5C 414.344,825.764 415.011,829.764 416.5,833.5C 416.232,835.099 416.566,836.432 417.5,837.5C 417.584,841.837 418.584,845.837 420.5,849.5C 420.232,851.099 420.566,852.432 421.5,853.5C 421.263,854.791 421.596,855.791 422.5,856.5C 422.259,858.898 422.926,860.898 424.5,862.5C 424.872,866.297 426.206,869.63 428.5,872.5C 428.707,875.241 429.707,877.574 431.5,879.5C 432.41,882.992 434.076,885.992 436.5,888.5C 438.178,893.197 440.844,897.197 444.5,900.5C 445.08,902.749 446.413,904.415 448.5,905.5C 453.929,913.597 460.929,919.93 469.5,924.5C 469.973,925.906 470.973,926.573 472.5,926.5C 472.842,927.338 473.508,927.672 474.5,927.5C 475.29,928.401 476.29,929.068 477.5,929.5C 478.78,930.931 480.447,931.598 482.5,931.5C 482.842,932.338 483.508,932.672 484.5,932.5C 485.93,933.537 487.597,934.204 489.5,934.5C 490.209,935.404 491.209,935.737 492.5,935.5C 493.568,936.434 494.901,936.768 496.5,936.5C 499.203,937.963 502.203,938.796 505.5,939C 519.754,941.366 533.754,940.866 547.5,937.5C 549.099,937.768 550.432,937.434 551.5,936.5C 555.915,936.139 559.915,934.806 563.5,932.5C 564.492,932.672 565.158,932.338 565.5,931.5C 570.753,930.207 575.419,927.874 579.5,924.5C 580.492,924.672 581.158,924.338 581.5,923.5C 591.969,917.711 601.636,910.711 610.5,902.5C 614.588,905.583 617.921,909.25 620.5,913.5C 619.833,913.5 619.5,913.833 619.5,914.5C 618.833,914.5 618.5,914.833 618.5,915.5C 617.094,915.973 616.427,916.973 616.5,918.5C 615.833,918.5 615.5,918.833 615.5,919.5C 614.833,919.5 614.5,919.833 614.5,920.5C 613.094,920.973 612.427,921.973 612.5,923.5C 611.833,923.5 611.5,923.833 611.5,924.5C 610.833,924.5 610.5,924.833 610.5,925.5C 609.833,925.5 609.5,925.833 609.5,926.5C 608.833,926.5 608.5,926.833 608.5,927.5C 606.738,928.262 605.738,929.596 605.5,931.5C 604.833,931.5 604.5,931.833 604.5,932.5C 603.833,932.5 603.5,932.833 603.5,933.5C 602.833,933.5 602.5,933.833 602.5,934.5C 601.833,934.5 601.5,934.833 601.5,935.5C 600.833,935.5 600.5,935.833 600.5,936.5C 599.833,936.5 599.5,936.833 599.5,937.5C 598.833,937.5 598.5,937.833 598.5,938.5C 597.833,938.5 597.5,938.833 597.5,939.5C 596.833,939.5 596.5,939.833 596.5,940.5C 595.833,940.5 595.5,940.833 595.5,941.5C 594.833,941.5 594.5,941.833 594.5,942.5C 593.833,942.5 593.5,942.833 593.5,943.5C 592.833,943.5 592.5,943.833 592.5,944.5C 591.833,944.5 591.5,944.833 591.5,945.5C 590.833,945.5 590.5,945.833 590.5,946.5C 588.973,946.427 587.973,947.094 587.5,948.5C 586.833,948.5 586.5,948.833 586.5,949.5C 585.833,949.5 585.5,949.833 585.5,950.5C 584.833,950.5 584.5,950.833 584.5,951.5C 583.508,951.328 582.842,951.662 582.5,952.5C 581.833,952.5 581.5,952.833 581.5,953.5C 580.833,953.5 580.5,953.833 580.5,954.5C 579.833,954.5 579.5,954.833 579.5,955.5C 578.508,955.328 577.842,955.662 577.5,956.5C 576.833,956.5 576.5,956.833 576.5,957.5C 575.508,957.328 574.842,957.662 574.5,958.5C 573.833,958.5 573.5,958.833 573.5,959.5C 572.508,959.328 571.842,959.662 571.5,960.5C 570.833,960.5 570.5,960.833 570.5,961.5C 569.833,961.5 569.5,961.833 569.5,962.5C 568.508,962.328 567.842,962.662 567.5,963.5C 566.833,963.5 566.5,963.833 566.5,964.5C 565.508,964.328 564.842,964.662 564.5,965.5C 562.973,965.427 561.973,966.094 561.5,967.5C 560.508,967.328 559.842,967.662 559.5,968.5C 558.508,968.328 557.842,968.662 557.5,969.5C 556.508,969.328 555.842,969.662 555.5,970.5C 553.847,970.66 552.514,971.326 551.5,972.5C 550.833,972.5 550.5,972.833 550.5,973.5C 548.447,973.402 546.78,974.069 545.5,975.5C 543.847,975.66 542.514,976.326 541.5,977.5C 540.508,977.328 539.842,977.662 539.5,978.5C 536.458,978.733 533.792,979.733 531.5,981.5C 529.214,981.595 527.214,982.262 525.5,983.5C 523.214,983.595 521.214,984.262 519.5,985.5C 518.209,985.263 517.209,985.596 516.5,986.5C 504.795,989.045 493.128,991.045 481.5,992.5C 465.115,992.842 448.782,992.175 432.5,990.5C 431.432,989.566 430.099,989.232 428.5,989.5C 425.781,988.087 422.781,987.42 419.5,987.5C 418.791,986.596 417.791,986.263 416.5,986.5C 413.785,984.928 410.785,983.928 407.5,983.5C 406.791,982.596 405.791,982.263 404.5,982.5C 399.244,980.185 393.91,977.852 388.5,975.5C 386.151,973.659 383.485,972.326 380.5,971.5C 380.027,970.094 379.027,969.427 377.5,969.5C 376.486,968.326 375.153,967.66 373.5,967.5C 371.45,965.453 369.117,963.786 366.5,962.5C 366.027,961.094 365.027,960.427 363.5,960.5C 360.792,957.791 357.792,955.458 354.5,953.5C 351.167,949.5 347.5,945.833 343.5,942.5C 342.833,941.167 341.833,940.167 340.5,939.5C 338.138,936.808 335.804,934.141 333.5,931.5C 332.396,929.611 331.063,927.945 329.5,926.5C 328.488,925.128 327.488,923.795 326.5,922.5C 325.974,920.77 324.974,919.436 323.5,918.5C 323.573,916.973 322.906,915.973 321.5,915.5C 320.89,913.566 319.89,911.899 318.5,910.5C 317.89,908.566 316.89,906.899 315.5,905.5C 315.008,903.181 314.008,901.181 312.5,899.5C 312.008,897.181 311.008,895.181 309.5,893.5C 309.008,891.181 308.008,889.181 306.5,887.5C 306.598,885.447 305.931,883.78 304.5,882.5C 304.204,880.597 303.537,878.93 302.5,877.5C 302.405,875.214 301.738,873.214 300.5,871.5C 300.279,868.933 299.612,866.599 298.5,864.5C 298.198,861.627 297.531,858.961 296.5,856.5C 296.768,854.901 296.434,853.568 295.5,852.5C 295.283,848.295 294.617,844.295 293.5,840.5C 291.658,814.085 292.325,787.752 295.5,761.5C 296.434,760.432 296.768,759.099 296.5,757.5C 300.316,742.512 305.316,727.845 311.5,713.5C 313.104,712.713 313.771,711.38 313.5,709.5C 314.338,709.158 314.672,708.492 314.5,707.5C 315.338,707.158 315.672,706.492 315.5,705.5C 328.294,683.523 344.294,664.023 363.5,647C 371.017,641.637 378.35,636.137 385.5,630.5C 388.511,629.331 391.178,627.664 393.5,625.5C 400.665,622.085 407.665,618.418 414.5,614.5C 417.241,614.293 419.574,613.293 421.5,611.5C 424.443,611.02 427.11,610.02 429.5,608.5C 430.791,608.737 431.791,608.404 432.5,607.5C 443.887,604.583 455.22,601.916 466.5,599.5C 475.82,598.871 485.154,598.538 494.5,598.5C 494.833,468.332 494.5,338.332 493.5,208.5C 493.768,206.901 493.434,205.568 492.5,204.5C 492.834,201.509 491.834,199.176 489.5,197.5C 489.672,196.508 489.338,195.842 488.5,195.5C 486.807,192.318 484.141,190.652 480.5,190.5C 478.316,189.734 475.982,189.067 473.5,188.5C 472.893,188.624 472.56,188.957 472.5,189.5C 468.84,189.159 465.507,189.825 462.5,191.5C 461.508,191.328 460.842,191.662 460.5,192.5C 459.508,192.328 458.842,192.662 458.5,193.5C 456.973,193.427 455.973,194.094 455.5,195.5C 454.833,195.5 454.5,195.833 454.5,196.5C 452.486,196.608 450.82,195.942 449.5,194.5C 447.641,191.865 446.141,189.198 445,186.5C 456.447,176.531 468.947,168.197 482.5,161.5C 484.553,161.598 486.22,160.931 487.5,159.5C 489.553,159.598 491.22,158.931 492.5,157.5C 496.784,156.739 500.784,155.405 504.5,153.5C 510.397,152.658 516.064,151.324 521.5,149.5C 533.152,148.767 544.819,148.434 556.5,148.5 Z M 613.5,404.5 C 613.833,404.5 614.167,404.5 614.5,404.5C 614.573,406.027 613.906,407.027 612.5,407.5C 612.557,406.391 612.89,405.391 613.5,404.5 Z M 674.5,753.5 C 673.5,756.5 671.5,758.5 668.5,759.5C 670.167,757.167 672.167,755.167 674.5,753.5 Z"/>
</svg>
