<svg xmlns="http://www.w3.org/2000/svg" viewBox="0 0 91 100"><path d="M33 10.875C8.517 18.742-2.958 46.487 8.841 69.285c3.558 6.875 6.59 10.078 5.464 5.772-.423-1.618-.066-2.057 1.672-2.057 1.369 0 2.409-.761 2.733-2 .288-1.1.939-2 1.447-2C21.728 69 27 64.693 27 63.41c0-.668-1.371-1.692-3.047-2.276-3.006-1.048-3.024-1.096-1.364-3.629.925-1.412 1.396-2.853 1.046-3.203-.349-.349-.635-.11-.635.531 0 .642-.675 1.167-1.5 1.167-1.815 0-1.997-1.656-.25-2.28.727-.259.879-.817.363-1.333s-1.074-.364-1.333.363c-.482 1.35-3.28 1.753-3.28.472 0-.428.936-1.579 2.081-2.559 1.997-1.71 2.148-1.709 3.75.029 3.923 4.259 4.776 4.478 6.028 1.55 1.021-2.387.995-2.515-.203-.992-1.91 2.428-2.323 2.208-2.323-1.236 0-2.059.592-3.173 1.909-3.591 1.05-.333 1.688-.826 1.419-1.095-.269-.27-1.519.061-2.778.734-1.751.937-2.38.947-2.682.04-.288-.864-.752-.889-1.709-.095-.859.713-1.528.744-1.931.092-.339-.549.353-1.518 1.538-2.152 1.69-.904 2.335-.863 2.987.191.661 1.071 1.084 1.092 2.072.104.989-.989.871-1.242-.58-1.242-1.586 0-1.645-.22-.45-1.692.932-1.15.971-1.451.122-.941-.687.413-1.25.364-1.25-.108s.563-1.426 1.25-2.118c1.002-1.01.903-1.127-.5-.593-1.434.546-1.75.105-1.75-2.441 0-1.709.498-3.107 1.107-3.107s.853.661.544 1.468c-.826 2.151.768 2.69 2.952.998 1.318-1.022 1.414-1.304.314-.925-1.217.419-1.584-.159-1.584-2.498 0-1.992.501-3.043 1.45-3.043.958 0 1.273.679.927 2-.4 1.53-.03 2 1.571 2 2.008 0 1.989.111-.478 2.75-1.42 1.519-2.483 3.748-2.374 4.98C28.66 42.339 30 44.071 30 41.76c0-.865 3.263-4.607 7.25-8.315 3.987-3.708 6.313-6.25 5.168-5.648-1.145.602-2.663 1.793-3.373 2.648-1.462 1.762-3.524 2.14-2.483.455.485-.786.13-.806-1.245-.07-2.822 1.511-4.565.007-3.752-3.235.462-1.839 1.155-2.532 2.151-2.15 3.851 1.477 6.284 1.708 6.284.596 0-.678.764-.933 1.805-.603 1.079.342 2.695-.255 4.013-1.483 1.214-1.132 2.652-1.783 3.195-1.447.543.336.987-.092.987-.949 0-1.857 2.596-2.094 3.388-.309.304.688.454.35.333-.75-.134-1.209.372-2 1.279-2 .825 0 1.387.563 1.25 1.25-.403 2.015 2.068 1.565 12.703-2.313 2.217-.809-3.312-4.109-10.808-6.451C50.29 8.531 40.428 8.488 33 10.875m7.446.212c-1.03 1.668 1.287 3.58 2.667 2.2C44.267 12.133 43.545 10 42 10c-.485 0-1.184.489-1.554 1.087m7.178.451c-.342.891.062 1.788.96 2.133 1.867.716 3.911-1.061 2.97-2.584-.981-1.588-3.248-1.328-3.93.451m-14.504.817c-.871 1.05-.815 1.653.235 2.525 1.05.871 1.653.815 2.525-.235.871-1.05.815-1.653-.235-2.525-1.05-.871-1.653-.815-2.525.235m22.07 1.395c.186.963 1 1.75 1.81 1.75s1.624-.787 1.81-1.75C59.046 12.522 58.506 12 57 12s-2.046.522-1.81 1.75m-10.744.337c-1.03 1.668 1.287 3.58 2.667 2.2C48.267 15.133 47.545 13 46 13c-.485 0-1.184.489-1.554 1.087m-17.758.559c-1.374 1.374-.662 3.496 1.062 3.164.962-.186 1.75-.969 1.75-1.74 0-1.579-1.764-2.472-2.812-1.424m10.758.441c-1.03 1.668 1.287 3.58 2.667 2.2C41.267 16.133 40.545 14 39 14c-.485 0-1.184.489-1.554 1.087M51 15.441c0 .793.399 1.688.887 1.989 1.101.681 3.342-1.868 2.438-2.772-1.19-1.19-3.325-.687-3.325.783m11.598-.705C61.281 16.052 62.117 18 64 18c1.1 0 2-.627 2-1.393 0-1.508-2.429-2.845-3.402-1.871M30.57 16.887c-.681 1.101 1.868 3.342 2.772 2.438.362-.362.658-1.258.658-1.992 0-1.489-2.578-1.825-3.43-.446m26.876.2c-1.03 1.668 1.287 3.58 2.667 2.2C61.267 18.133 60.545 16 59 16c-.485 0-1.184.489-1.554 1.087M41 18.5c0 .825.675 1.5 1.5 1.5s1.5-.675 1.5-1.5-.675-1.5-1.5-1.5-1.5.675-1.5 1.5m6.218-.346c.519 1.558 2.756 1.83 2.835.346.029-.55-.698-1.155-1.615-1.346-1.043-.215-1.5.159-1.22 1m-27.096 1.199C18.906 20.818 19.596 22 21.667 22c1.489 0 1.825-2.578.446-3.43-.487-.301-1.383.051-1.991.783m14.156 1.295c-1.289 2.777-.826 4.808.859 3.767.55-.339.758-1.247.463-2.016-.31-.807.084-1.399.931-1.399.808 0 1.469-.675 1.469-1.5 0-2.438-2.401-1.698-3.722 1.148m30.277-.018C60.736 21.934 56.644 23 55.462 23c-4.895 0-26.069 17.793-23.833 20.029.716.716 3.112-.665 7.742-4.46 7.151-5.861 11.35-7.554 18.757-7.563 7.769-.01 8.191 2.299 1.076 5.891-5.132 2.59-8.122 5.519-6.892 6.749 1.956 1.955 20.92-7.93 24.146-12.586 3.068-4.426 3.072-4.506.472-8.158-3.299-4.633-4.701-4.891-12.375-2.272m-40.109-.543c-1.03 1.668 1.287 3.58 2.667 2.2C28.267 21.133 27.545 19 26 19c-.485 0-1.184.489-1.554 1.087m20.221-.42C43.516 20.817 43.938 22 45.5 22c.825 0 1.5-.675 1.5-1.5 0-1.562-1.183-1.984-2.333-.833M29.5 21c-.399.646-.276 1.624.274 2.174.667.667 1.242.609 1.726-.174.399-.646.276-1.624-.274-2.174-.667-.667-1.242-.609-1.726.174m9.043-.069C37.808 22.12 39.68 23.316 41 22.5c.55-.34 1 .084 1 .941 0 1.688 1.541 2.111 2.432.668.303-.489-.554-1.614-1.905-2.5-2.855-1.87-3.21-1.93-3.984-.678M19.339 24.56c-.751 1.957.152 2.849 2.118 2.095 1.978-.759 1.981-2.273.005-3.031-.885-.34-1.786.057-2.123.936m17.355-.921c-.799.799.104 2.361 1.365 2.361.518 0 .941-.675.941-1.5 0-1.546-1.18-1.987-2.306-.861M14.19 25.75c.438 2.271 3.182 2.271 3.62 0C18.046 24.522 17.506 24 16 24s-2.046.522-1.81 1.75M24 25.5c0 .825.675 1.5 1.5 1.5s1.5-.675 1.5-1.5-.675-1.5-1.5-1.5-1.5.675-1.5 1.5m4-.083c0 .871.712 1.583 1.583 1.583 1.766 0 1.459-2.153-.395-2.771-.654-.218-1.188.317-1.188 1.188m5.667 2.25c-.367.366-.667 1.131-.667 1.7 0 .626.466.567 1.183-.15.651-.651.951-1.416.667-1.7-.284-.284-.817-.217-1.183.15m-14 1C18.516 29.817 18.938 31 20.5 31c.825 0 1.5-.675 1.5-1.5 0-1.562-1.183-1.984-2.333-.833m4.027-.028c-.799.799.104 2.361 1.365 2.361.518 0 .941-.675.941-1.5 0-1.546-1.18-1.987-2.306-.861m55.834.316c-.404.654.024 1.728.962 2.414 1.494 1.093 1.516 1.381.189 2.482-1.015.843-1.711.907-2.149.198-.967-1.565-2.53-1.266-2.53.483 0 .843-1.013 1.939-2.25 2.437-1.237.497-1.687.933-1 .968.688.034 1.25.738 1.25 1.563 0 1.698-1.566 2.011-2.5.5-1.022-1.653-2.485-1.126-1.804.65.53 1.38.158 1.541-2.282.984-2.685-.613-2.769-.551-1.064.784 1.038.813 1.53 1.966 1.122 2.627-.401.648-.137 1.544.586 1.991 1.011.624 1.044 1.136.146 2.219-.916 1.103-.729 1.877.865 3.589 1.118 1.2 1.716 2.694 1.329 3.32-.48.778-1.163.536-2.154-.763-1.386-1.816-1.421-1.8-.78.349.402 1.347.242 2.25-.397 2.25C66.48 58 66 57.55 66 57s-.454-1-1.008-1c-.616 0-.546.741.178 1.9.652 1.045 1.781 1.672 2.508 1.393.727-.279 1.322-.009 1.322.6S68.356 61 67.568 61c-.889 0-1.341.853-1.192 2.25.132 1.237.657 2.25 1.166 2.25.509 0 .783-.837.61-1.861-.193-1.139.171-1.698.94-1.442 1.865.622 2.333 5.803.524 5.803-.799 0-2.164.273-3.034.607-1.199.46-1.582-.039-1.582-2.063v-2.67l-2.866 2.813c-1.581 1.552-2.624 3.451-2.326 4.237.362.956.048 1.235-.956.849-1.427-.547-4.208 2.483-4.339 4.727-.032.55-.924.847-1.982.661-1.607-.283-1.719-.092-.679 1.161.935 1.126.956 1.679.085 2.217-.638.395-1.533.115-1.988-.621-.665-1.076-1.231-.973-2.888.527C45.927 81.471 45 81.929 45 81.464c0-.466-.596-.032-1.323.964-1.092 1.493-1.661 1.6-3.25.614-1.505-.933-2.585-.917-4.927.077-1.65.699-3.45 1.34-4 1.423-.55.083-1.675.41-2.5.725-.825.316-2.175.76-3 .988-.825.227 1.17 1.412 4.434 2.634 31.762 11.887 63.521-16.236 55.158-48.845-1.886-7.353-4.931-12.922-6.064-11.089M15 30.5c0 .825.675 1.5 1.5 1.5s1.5-.675 1.5-1.5-.675-1.5-1.5-1.5-1.5.675-1.5 1.5M10 32c0 1.506.522 2.046 1.75 1.81.963-.186 1.75-1 1.75-1.81s-.787-1.624-1.75-1.81C10.522 29.954 10 30.494 10 32m10.639.694C19.513 33.82 19.954 35 21.5 35c.825 0 1.5-.423 1.5-.941 0-1.261-1.562-2.164-2.361-1.365m11.307 3.056L28.5 39.5l3.75-3.446c2.063-1.896 3.75-3.583 3.75-3.75 0-.764-.846-.044-4.054 3.446m-15.537-1.374c-.847 2.208.28 3.335 1.808 1.807.902-.902.905-1.461.016-2.35-.89-.89-1.324-.761-1.824.543M50 33.941c0 .518.445 1.216.989 1.552.566.35.734-.051.393-.941C50.717 32.82 50 32.503 50 33.941m5.247.299c.167.501.629.876 1.028.835.399-.041 1.475-.075 2.392-.075 2.285 0 .777-1.338-1.716-1.522-1.104-.081-1.871.262-1.704.762m-43.622 1.558c-.791 1.279 1.043 3.525 2.263 2.771 1.606-.992 1.368-3.569-.329-3.569-.793 0-1.663.359-1.934.798m64.821.289c-1.03 1.668 1.287 3.58 2.667 2.2C80.267 37.133 79.545 35 78 35c-.485 0-1.184.489-1.554 1.087m-55.662.462c-.735.735 1.486 5.433 2.573 5.443.471.004.584-.704.25-1.574-.334-.87-.607-2.22-.607-3 0-1.425-1.192-1.892-2.216-.869m-13.611 2.11c.421 2.189 3.327 2.498 3.327.355 0-.818-.828-1.646-1.841-1.841-1.336-.257-1.743.15-1.486 1.486M17.5 38c-.399.646-.276 1.624.274 2.174.667.667 1.242.609 1.726-.174.399-.646.276-1.624-.274-2.174-.667-.667-1.242-.609-1.726.174m26.113.183c.289.467.944.591 1.456.274 1.308-.808 1.161-1.124-.525-1.124-.801 0-1.22.383-.931.85m37.532.142c-.908 1.094-.834 1.688.331 2.655 1.224 1.016 1.619.936 2.145-.435.897-2.337-.981-4.022-2.476-2.22m-67.699 1.762c-.369.598-.28 1.479.199 1.958 1.183 1.183 3.786-.538 2.924-1.933-.873-1.414-2.258-1.425-3.123-.025m61.663.282c-.891 1.074-.91 1.636-.07 2.155 1.63 1.008 3.654-1.231 2.319-2.566-.724-.724-1.412-.598-2.249.411M9.446 42.087c-1.03 1.668 1.287 3.58 2.667 2.2C13.267 43.133 12.545 41 11 41c-.485 0-1.184.489-1.554 1.087m7.759.724c-1.262.971-1.975 2.086-1.583 2.477 1.182 1.183 2.378.802 2.378-.757 0-.894.586-1.243 1.5-.893.95.365 1.5-.013 1.5-1.031 0-2.051-.93-2.001-3.795.204m52.438.611c-1.5 2.289-1.273 3.578.631 3.578.517 0 .681-.675.364-1.5-.35-.914-.001-1.5.893-1.5.808 0 1.469.45 1.469 1s.675 1 1.5 1c2.238 0 1.814-1.564-.909-3.348-2.275-1.491-2.495-1.448-3.948.77m8.803-.335c-1.03 1.668 1.287 3.58 2.667 2.2C82.267 44.133 81.545 42 80 42c-.485 0-1.184.489-1.554 1.087M63 44c.825.533 1.95.969 2.5.969s.325-.436-.5-.969c-.825-.533-1.95-.969-2.5-.969s-.325.436.5.969m-57.467.947C4.653 46.37 5.775 48 7.632 48c.876 0 1.378-.703 1.191-1.667-.389-2.009-2.386-2.849-3.29-1.386m55.796.416c1.39 1.119 1.592 1.917.84 3.321-1.693 3.163.77 6.59 3.331 4.636 1.979-1.511 1.978-1.52-.132-.894-1.359.404-2.322.137-2.657-.737-.838-2.185.729-3.84 2.869-3.029 2.774 1.052-.214-1.9-3.601-3.557-2.256-1.104-2.314-1.081-.65.26M12.5 46c-.399.646-.276 1.624.274 2.174.667.667 1.242.609 1.726-.174.399-.646.276-1.624-.274-2.174-.667-.667-1.242-.609-1.726.174m69.673.659c.421 2.189 3.327 2.498 3.327.355 0-.818-.828-1.646-1.841-1.841-1.336-.257-1.743.15-1.486 1.486m-64.479-.02c-.799.799.104 2.361 1.365 2.361.518 0 .941-.675.941-1.5 0-1.546-1.18-1.987-2.306-.861m12.859.276a1.116 1.116 0 0 0 .362 1.532c.521.322 1.21.159 1.532-.362a1.116 1.116 0 0 0-.362-1.532 1.116 1.116 0 0 0-1.532.362m40.125 1.148c-2.107 2.461-2.1 2.568.322 5.167 1.1 1.181 2 2.775 2 3.542 0 1.625 2.188 1.163 2.771-.584.218-.654-.303-1.188-1.156-1.188-.969 0-1.336-.564-.977-1.5.365-.95-.013-1.5-1.031-1.5-.884 0-1.607-.675-1.607-1.5s.675-1.5 1.5-1.5c1.602 0 2.041-1.547.678-2.39-.452-.279-1.577.375-2.5 1.453M76 47.5c0 .825.675 1.5 1.5 1.5s1.5-.675 1.5-1.5-.675-1.5-1.5-1.5-1.5.675-1.5 1.5m-54 .071c0 1.063 3.091 3.672 3.667 3.096.314-.315-.125-1.268-.977-2.119C23.103 46.96 22 46.56 22 47.571M9.34 49.807c-.289 1.104-1.431 2.245-2.538 2.534-2.114.553-2.065 2.738.077 3.452.689.23 1.501-.53 1.804-1.688C9.309 51.71 12 51.219 12 53.5c0 .825.675 1.5 1.5 1.5s1.5-.627 1.5-1.393.675-1.652 1.5-1.969c.825-.316 1.5-1.039 1.5-1.607 0-.567-.675-1.031-1.5-1.031s-1.5.675-1.5 1.5-.675 1.5-1.5 1.5-1.5-.648-1.5-1.441c0-2.343-2.089-2.934-2.66-.752m48.798.526c-.827.997-.773 1.334.211 1.334.725 0 1.318-.6 1.318-1.334 0-.733-.095-1.333-.211-1.333-.116 0-.709.6-1.318 1.333m15.405-.402c-.74 1.197 1.141 2.382 2.473 1.559C77.135 50.799 76.4 49 75 49c-.485 0-1.141.419-1.457.931m5.457.51c0 .793.399 1.688.887 1.989 1.101.681 3.342-1.868 2.438-2.772-1.19-1.19-3.325-.687-3.325.783m-47.447.474a1.116 1.116 0 0 0 .362 1.532c.521.322 1.21.159 1.532-.362a1.116 1.116 0 0 0-.362-1.532 1.116 1.116 0 0 0-1.532.362M76 52.801c0 1.839 2.59 6.184 3.691 6.191 2.139.014 2.562-2.113.526-2.646-1.369-.358-1.829-1.112-1.484-2.432.34-1.302-.016-1.914-1.116-1.914-.89 0-1.617.36-1.617.801m6.688-.155c-1.374 1.374-.662 3.496 1.062 3.164.963-.186 1.75-.969 1.75-1.74 0-1.579-1.764-2.472-2.812-1.424M15.5 55c-.399.646-.276 1.624.274 2.174.667.667 1.242.609 1.726-.174.399-.646.276-1.624-.274-2.174-.667-.667-1.242-.609-1.726.174m-6.054 1.087c-1.03 1.668 1.287 3.58 2.667 2.2C13.267 57.133 12.545 55 11 55c-.485 0-1.184.489-1.554 1.087M25 55.885c0 .897 3.005 2.443 3.598 1.851.171-.172-.568-.861-1.643-1.532-1.075-.672-1.955-.815-1.955-.319m27.027 5.198c-2.334 2.768-4.5 4.777-4.813 4.465-.312-.313.716-1.909 2.286-3.548s2.604-3.23 2.298-3.536c-.306-.306-1.999 1.265-3.761 3.49C46.274 64.179 45.346 66 45.975 66s.925.354.657.786c-1.302 2.107 4.396.498 8.386-2.369 5.975-4.293 8.417-7.03 7.035-7.885-.593-.366-3.368 1.839-6.166 4.901-2.798 3.062-5.588 5.567-6.2 5.567-.611 0 1.052-2.197 3.696-4.882 2.645-2.685 4.377-5.148 3.849-5.475-.529-.326-2.871 1.672-5.205 4.44M18 58c0 .55.675 1 1.5 1s1.5-.45 1.5-1-.675-1-1.5-1-1.5.45-1.5 1m52 .5c0 .917.484 1.505 1.075 1.308.591-.197 1.075-.785 1.075-1.308s-.484-1.111-1.075-1.308C70.484 56.995 70 57.583 70 58.5m-57 1.117c0 1.124.609 1.457 2 1.093 1.339-.35 2-.03 2 .967 0 .819.534 1.312 1.188 1.094 2.201-.734 1.812-2.263-.896-3.521-3.535-1.642-4.292-1.578-4.292.367m11-.64c0 .434.9 1.025 2 1.313 1.1.287 2 .167 2-.267 0-.434-.9-1.025-2-1.313-1.1-.287-2-.167-2 .267m50.625-.179c-.962 1.556 1.192 3.785 2.446 2.531.635-.635.852-1.644.483-2.242-.79-1.278-2.23-1.42-2.929-.289m-66.937.848c-1.374 1.374-.662 3.496 1.062 3.164.963-.186 1.75-.969 1.75-1.74 0-1.579-1.764-2.472-2.812-1.424m51.82 2.96c-7.575 6.687-13.759 9.533-19.98 9.195-6.656-.361-7.123-1.451-2.089-4.876 9.491-6.456 5.837-7.485-6.439-1.813-12.077 5.579-17.329 12.94-12.354 17.315 3.46 3.043 3.642 3.054 10.573.67 3.042-1.047 8.175-2.443 11.406-3.102 7.771-1.584 10.672-3.506 18.125-12.004 8.216-9.368 8.634-12.336.758-5.385m12.131-1.912C70.513 61.82 70.954 63 72.5 63c.825 0 1.5-.423 1.5-.941 0-1.261-1.562-2.164-2.361-1.365m8.807.393c-.873 1.412 1.055 3.34 2.467 2.467.598-.37 1.087-1.32 1.087-2.113 0-1.684-2.574-1.94-3.554-.354m-59.807.607C19.513 62.82 19.954 64 21.5 64c.825 0 1.5-.423 1.5-.941 0-1.261-1.562-2.164-2.361-1.365m-9.208 1.418c-.862 1.395 1.741 3.116 2.924 1.933C15.316 64.084 14.39 62 13 62c-.485 0-1.191.5-1.569 1.112m65.015-.025c-1.03 1.668 1.287 3.58 2.667 2.2C80.267 64.133 79.545 62 78 62c-.485 0-1.184.489-1.554 1.087M24 64c0 .55.45 1 1 1s1-.45 1-1-.45-1-1-1-1 .45-1 1m-8.457.931c-.317.512-.118 1.213.441 1.559 1.193.737 3.016-.199 3.016-1.549 0-1.217-2.707-1.225-3.457-.01m57.124-.264C71.516 65.817 71.938 67 73.5 67c.825 0 1.5-.675 1.5-1.5 0-1.562-1.183-1.984-2.333-.833m-53.124 1.264c-.74 1.197 1.141 2.382 2.473 1.559C23.135 66.799 22.4 65 21 65c-.485 0-1.141.419-1.457.931m-9.919 1.607c-.653 1.702 1.641 3.034 3.377 1.962.786-.486.765-1.077-.075-2.089-1.517-1.828-2.568-1.787-3.302.127M62 68c0 .55.45 1 1 1s1-.45 1-1-.45-1-1-1-1 .45-1 1m15.446.087c-.369.598-.21 1.549.354 2.113 1.262 1.262 3.2.196 3.2-1.759 0-1.684-2.574-1.94-3.554-.354m-63.015 1.025c-.754 1.22 1.492 3.054 2.771 2.263.439-.271.798-1.141.798-1.934 0-1.697-2.577-1.935-3.569-.329m59.236-.445C72.449 69.885 72.978 72 74.5 72c.833 0 1.5-.889 1.5-2 0-1.992-1.066-2.601-2.333-1.333m-4.513 1.771c.191.917.796 1.644 1.346 1.615 1.484-.079 1.212-2.316-.346-2.835-.841-.28-1.215.177-1 1.22m-7.839.94c.291.758.063 1.844-.506 2.413-1.241 1.241-.096 3.504 1.328 2.624.55-.339.763-1.232.475-1.984-.289-.752-.094-1.633.432-1.958C64.56 71.536 64.155 70 62.393 70c-.954 0-1.392.56-1.078 1.378M65 71.5c0 .917.484 1.505 1.075 1.308.591-.197 1.075-.785 1.075-1.308s-.484-1.111-1.075-1.308C65.484 69.995 65 70.583 65 71.5m-8 2.596c0 .602-.928 2.399-2.063 3.993-2.008 2.819-1.906 4.911.239 4.911.581 0 .822-.9.534-2-.353-1.349-.03-2 .991-2 .934 0 1.293-.574.937-1.5-.316-.825-.139-1.5.393-1.5.533 0 .969-.675.969-1.5s-.45-1.5-1-1.5-1 .493-1 1.096m16.446-.009c-1.03 1.668 1.287 3.58 2.667 2.2C77.267 75.133 76.545 73 75 73c-.485 0-1.184.489-1.554 1.087M64 75.5c0 .825.675 1.5 1.5 1.5s1.5-.675 1.5-1.5-.675-1.5-1.5-1.5-1.5.675-1.5 1.5m4.694-.861c-.933.934.194 2.361 1.865 2.361.793 0 1.441-.675 1.441-1.5 0-1.506-2.111-2.056-3.306-.861m-9.54 3.799c.191.917.796 1.644 1.346 1.615 1.484-.079 1.212-2.316-.346-2.835-.841-.28-1.215.177-1 1.22m4.292.649c-1.03 1.668 1.287 3.58 2.667 2.2C67.267 80.133 66.545 78 65 78c-.485 0-1.184.489-1.554 1.087m5.242-.441c-1.374 1.374-.662 3.496 1.062 3.164.963-.186 1.75-.969 1.75-1.74 0-1.579-1.764-2.472-2.812-1.424M47 82.383c0 .761-.974 1.638-2.164 1.95-1.822.476-1.962.81-.887 2.105C45.38 88.163 47 87.634 47 85.441c0-.793.675-1.441 1.5-1.441s1.5-.675 1.5-1.5-.675-1.5-1.5-1.5-1.5.623-1.5 1.383m10.446-.296c-1.03 1.668 1.287 3.58 2.667 2.2C61.267 83.133 60.545 81 59 81c-.485 0-1.184.489-1.554 1.087m4.22 1.34c-.776 2.024 1.647 3.86 3.134 2.373.84-.84.855-1.511.054-2.476-1.422-1.714-2.504-1.679-3.188.103M37 85.083c0 2.437 2.337 2.093 2.823-.416.192-.987-.318-1.667-1.25-1.667-.927 0-1.573.855-1.573 2.083m13.446-.996c-1.03 1.668 1.287 3.58 2.667 2.2C54.267 85.133 53.545 83 52 83c-.485 0-1.184.489-1.554 1.087m-17.913 1.86c-.88 1.423.242 3.053 2.099 3.053.876 0 1.378-.703 1.191-1.667-.389-2.009-2.386-2.849-3.29-1.386m22.091.591c-.653 1.702 1.641 3.034 3.377 1.962.786-.486.765-1.077-.075-2.089-1.517-1.828-2.568-1.787-3.302.127m-14.504.817c-.871 1.05-.815 1.653.235 2.525 1.05.871 1.653.815 2.525-.235.871-1.05.815-1.653-.235-2.525-1.05-.871-1.653-.815-2.525.235m7.07 1.395c.186.963 1 1.75 1.81 1.75s1.624-.787 1.81-1.75C51.046 87.522 50.506 87 49 87s-2.046.522-1.81 1.75" fill-rule="evenodd"/></svg>