<svg aria-label="Logo" class="w-20 h-auto" width="150" height="150" viewBox="0 0 150 150" fill="none" xmlns="http://www.w3.org/2000/svg">
<path d="M35.7812 44.761V44.6435C36.0143 44.6435 36.364 44.5261 36.7134 44.5261C36.1309 44.0563 35.6647 43.7042 35.1986 43.2344C34.7324 44.1738 34.2664 45.1131 33.6837 45.9351L36.2474 44.8784C36.1309 44.761 35.8978 44.761 35.7812 44.761Z"></path>
<path d="M136.116 85.8586C136.116 86.0935 136.232 86.2107 136.232 86.3282C136.349 86.4456 136.582 86.6805 136.815 86.9154C137.048 87.1501 137.281 87.385 137.514 87.6199C137.864 85.7412 138.097 83.745 138.33 81.8663C137.397 83.0405 136.116 84.8018 136.116 85.8586Z"></path>
<path d="M131.923 104.057L132.039 104.292C132.039 104.292 132.039 104.174 132.156 104.174C132.039 104.174 132.039 104.057 131.923 104.057Z"></path>
<path d="M128.545 108.286C127.263 108.286 125.166 108.051 122.835 106.759C121.67 106.172 120.738 105.467 119.806 104.645V120.85H120.039C123.768 117.092 127.147 112.747 129.827 108.051C129.361 108.286 128.895 108.286 128.545 108.286Z"></path>
<path d="M144.153 99.3612C142.056 92.9029 136.346 88.5584 135.18 87.3842C132.85 85.0357 138.21 79.8693 138.443 79.6344C138.676 79.3995 138.793 79.0472 138.21 78.8125C134.132 76.9337 129.704 84.801 127.839 84.9182C127.257 84.9182 121.081 85.1531 118.051 85.7403C114.904 86.2099 110.243 87.5016 107.33 89.3803C105.116 90.7893 104.184 92.5507 103.601 92.9029C103.019 93.2552 102.786 94.312 103.019 94.6642C103.019 94.6642 102.552 95.2514 103.252 96.1908C104.533 97.5997 106.398 97.8346 108.146 98.3044C109.544 98.6565 113.39 101.122 117.934 101.122C117.818 101.005 117.818 100.888 117.701 100.77H117.934L118.167 100.653C118.983 102.062 120.614 104.058 123.528 105.584C128.072 108.05 131.918 106.641 131.218 105.702C130.636 104.997 129.121 103.236 127.606 101.357L128.189 101.71H128.305C128.538 101.944 128.771 102.062 128.888 102.179C130.869 102.531 135.763 102.884 138.327 105.937C139.725 107.581 140.657 109.812 140.774 112.395L140.657 112.747L140.424 112.982C140.424 112.865 140.424 112.865 140.424 112.747C139.259 114.274 135.18 111.221 133.899 115.33C133.782 115.8 134.365 115.8 134.598 115.565C134.831 115.33 135.53 115.33 135.647 115.683C135.763 116.035 136.462 115.565 136.346 116.035C136.346 116.505 136.928 115.8 137.394 116.739C137.977 117.679 138.793 116.974 139.259 116.739V116.857C139.026 117.209 138.443 117.914 139.492 119.088C140.774 120.497 140.774 120.497 140.774 121.201C140.774 121.906 141.356 122.376 140.89 123.198C140.424 124.02 141.123 123.902 141.59 123.55C146.018 119.792 143.104 115.683 143.221 115.33C144.619 111.221 145.901 104.645 144.153 99.3612Z"></path>
<path d="M86.9417 135.292C86.9417 136.349 87.7574 136.583 88.8061 136.466C89.8549 136.349 90.7871 136.231 90.7871 135.761C90.7871 135.292 89.3887 134.939 88.9227 134.822C88.4565 134.705 90.088 131.652 90.7871 130.712C91.3697 129.773 92.8847 127.777 93.8169 126.603C94.6326 125.546 95.3317 123.197 95.4482 122.728C95.4482 122.963 95.3317 123.55 95.4482 124.724C95.6813 126.25 95.9143 128.599 95.7979 128.834C95.6813 128.951 95.7979 132.943 95.5648 134C95.3317 135.057 95.5648 135.174 96.1474 135.174C96.7301 135.174 95.9143 137.405 96.1474 137.757C96.3805 138.11 97.8953 137.523 99.0606 137.64C100.226 137.757 99.1771 134.352 99.0606 132.591C98.944 130.83 99.5268 127.659 99.5268 126.368C99.5268 125.076 98.478 123.667 98.0118 122.493C97.5458 121.319 98.2449 121.084 98.3615 121.319C98.478 121.553 100.459 122.845 101.741 123.432C103.023 124.019 104.77 124.841 104.77 124.841C104.77 124.841 104.77 125.311 104.77 126.368C104.77 127.424 105.47 129.773 105.47 131.064C105.47 132.356 106.751 133.413 106.751 134.235C106.868 135.057 104.304 135.761 103.489 136.114C102.673 136.466 102.673 136.818 103.489 137.405C104.304 137.992 109.082 137.405 109.548 137.405C110.131 137.405 110.247 136.936 111.529 137.17C112.811 137.405 114.209 137.17 115.491 136.349C116.773 135.527 115.491 134.587 114.909 132.239C114.209 129.89 113.394 128.834 112.345 128.012C111.296 127.19 112.345 126.603 113.277 125.663C114.209 124.724 115.608 122.61 115.491 120.731C115.491 118.853 113.976 117.326 109.432 116.27C104.887 115.213 104.538 114.626 102.557 113.334C100.692 112.042 99.6433 112.395 98.8275 112.277C98.8275 112.277 97.6623 112.512 97.1961 111.69C96.7301 110.868 95.3317 109.576 94.3995 109.107C93.4672 108.637 92.3019 109.694 91.2532 110.398C90.2044 110.986 90.554 112.16 90.554 112.395C90.554 112.629 89.5053 113.334 89.0392 113.686C88.4565 114.039 88.9227 115.33 88.9227 115.33C88.9227 115.33 89.0392 116.622 89.6218 116.622C90.2044 116.622 91.2532 116.622 91.8359 116.974C92.4185 117.209 93.1176 117.561 93.7003 117.561C94.2829 117.561 93.9334 118.5 93.7003 119.44C93.3507 120.497 92.1854 122.375 90.7871 124.372C89.3887 126.368 88.6896 130.477 87.9905 131.652C87.2912 132.826 86.9417 134.235 86.9417 135.292ZM110.83 135.527C110.83 134.587 110.83 133.53 111.413 133.53C111.995 133.53 111.995 135.174 111.995 135.174C111.995 135.174 111.18 135.174 110.83 135.527Z"></path>
<path d="M46.1539 120.614C46.6201 120.027 47.3192 119.675 48.1349 119.675C48.368 119.675 48.4845 119.675 48.7176 119.675C48.7176 119.44 48.4845 119.088 48.4845 118.853C48.368 118.383 46.9695 115.683 46.7366 115.33C46.6201 115.213 46.5035 114.861 46.1539 114.508C45.8044 113.921 45.3382 113.217 45.2216 112.982C45.2216 112.982 45.1051 112.865 44.9885 112.63C44.5225 111.808 43.9399 110.868 43.7068 110.281C43.5903 109.929 43.4737 109.577 43.3572 109.107C43.3572 109.107 43.3572 109.107 43.2406 109.107C42.7746 109.107 42.425 108.99 42.1919 108.872V120.967H45.8044C46.0373 120.849 46.0373 120.732 46.1539 120.614Z"></path>
<path d="M75.4026 12C40.444 12 12.1276 40.5333 12.1276 75.7596C12.1276 81.2784 12.8268 86.5624 14.1086 91.6115C16.4392 90.2024 19.0028 89.0282 21.1002 88.7935C22.149 88.676 23.3143 88.5586 24.5962 88.5586C26.6937 88.5586 28.7911 88.7935 31.0052 89.0282V64.9569H28.2085V61.3169H45.1051V64.9569H42.3084V87.5018C42.6581 87.5018 43.0077 87.3843 43.3572 87.3843C43.5903 87.3843 43.8234 87.3843 43.9399 87.3843C46.387 87.7367 47.4357 90.4373 48.0183 92.1986C48.368 92.5509 49.0671 93.2554 49.0671 93.2554V93.3728C49.8828 94.3122 49.8828 95.4864 49.9993 96.4258C49.9993 96.778 50.3489 99.8309 50.4655 100.066C50.582 101.005 50.815 102.297 50.4655 103.471C50.582 103.706 50.815 104.176 51.3977 104.763C51.7474 105.115 53.3787 106.641 54.777 107.816L55.3597 108.285L55.2432 109.107C55.1266 109.577 55.0101 109.929 54.6604 110.281C54.8935 110.634 54.8935 110.986 54.8935 111.338C54.777 111.808 54.544 112.278 54.0778 112.512C53.9613 112.63 53.6118 112.747 53.2622 112.865H53.0291C52.9125 112.865 52.796 112.865 52.3299 112.747L52.563 113.217C52.9125 114.039 53.2622 114.743 53.6118 116.035V116.27C53.7282 116.622 53.8447 117.209 53.8447 117.914C54.0778 118.736 53.9613 119.44 53.9613 120.145C53.9613 120.38 53.9613 120.615 53.9613 120.849H56.9911V64.9569H54.1944V61.3169H71.0909V64.9569H68.2943V120.967H82.7438V64.9569H79.9471V61.3169H96.8439V64.9569H94.047V107.228C94.5132 107.228 94.8629 107.346 95.2124 107.463C96.3777 108.05 97.8925 109.459 98.4752 110.516C98.4752 110.516 98.4752 110.516 98.5918 110.516H99.0578C99.1743 110.516 99.1743 110.516 99.2909 110.516H99.7571C100.689 110.516 101.854 110.634 103.486 111.808L104.069 112.278C105.234 113.099 105.933 113.569 108.613 114.274V99.9484C108.264 99.8309 108.031 99.7135 107.797 99.5961C107.448 99.4786 107.098 99.4788 106.749 99.3613C105.117 99.009 103.369 98.5393 102.088 97.0129C101.272 96.0735 101.155 95.1341 101.388 94.4296C101.272 93.3728 101.854 92.1986 102.787 91.6115C102.787 91.6115 103.02 91.3767 103.253 91.1418C103.952 90.3199 104.884 89.1456 106.632 88.0888C107.215 87.7367 107.914 87.3843 108.73 87.032V64.9569H105.933V61.3169H122.83V64.9569H120.033V84.0965C122.83 83.7443 126.326 83.6269 127.607 83.6269H127.84C128.19 83.392 129.122 82.4526 129.705 81.8656C131.686 79.752 134.133 77.286 137.046 77.286C137.629 77.286 138.211 77.4035 138.794 77.6384C138.794 77.0513 138.794 76.5816 138.794 75.9945C138.794 40.5333 110.361 12 75.4026 12ZM127.957 58.9684H22.8483V50.6315L30.1895 47.4611C30.5392 46.5218 30.7721 45.5824 31.2383 44.7605C31.5878 43.9386 32.054 43.1166 32.054 42.1773C32.054 41.5901 32.2871 41.1205 32.4036 40.5333C32.9862 38.8894 33.4522 37.1281 34.035 35.4843C34.501 34.31 35.2003 33.3707 36.2491 32.5488C36.7151 32.1964 37.0647 31.7267 37.2978 31.1396C37.8804 29.9654 40.0945 28.3215 42.0755 28.6739C42.5415 28.7911 43.0077 29.026 43.2406 29.3783C43.5903 30.0828 44.0563 30.7873 43.9399 31.6094C43.9399 31.9615 43.7068 32.3139 43.5903 32.5488H43.4737C43.4737 32.3139 43.4737 32.079 43.4737 31.9615C43.1241 31.9615 42.7746 31.9615 42.3084 32.079C42.3084 32.3139 42.1919 32.666 42.1919 32.9009C42.3084 34.5449 41.8424 36.0713 41.0267 37.363C40.7936 37.7152 40.5605 38.0675 40.3274 38.5371C39.8614 39.4765 39.2787 40.1811 38.5795 40.8856C38.463 41.003 38.3464 41.1205 38.3464 41.2379C38.1135 41.8249 37.7639 42.2947 37.2978 42.5294C37.0647 42.6469 36.9482 42.7643 37.0647 42.9992C37.1813 43.1166 37.2978 43.3514 37.4142 43.4688C37.6473 43.8211 37.7639 43.9386 37.997 44.056L49.3002 39.2417L75.5191 27.9693L127.957 50.5141V58.9684Z"></path>
<path fill-rule="evenodd" clip-rule="evenodd" d="M50.3511 105.937C50.2345 105.82 49.0694 104.411 48.9528 103.472C49.4189 102.415 49.3023 101.358 49.0694 100.419C49.0694 100.184 48.6032 97.0135 48.6032 96.5437C48.6032 95.7218 48.4866 94.8999 48.0206 94.3127C48.0206 94.3127 46.8553 93.1386 46.7387 93.0212C46.2727 91.4946 45.4569 89.0288 43.709 88.9114C41.8445 88.6765 39.3975 90.0856 39.281 90.2031C39.0479 90.4378 36.9503 91.4946 36.1346 91.2599C31.7066 90.5552 25.9967 89.6159 21.2191 90.2031C16.7909 90.5552 9.44965 96.4263 8.40089 98.1876C7.23561 99.949 4.08934 107.464 5.25463 112.396C5.25463 112.396 6.53645 118.149 6.53645 118.971C6.53645 119.206 6.4199 119.441 6.30337 119.676C6.18685 119.911 6.18685 120.145 6.07032 120.38C5.83727 121.672 6.18687 122.729 6.53645 123.668C6.53645 123.785 6.65296 124.02 6.65296 124.138C6.30338 124.842 5.72074 127.66 5.60421 128.013C5.25463 128.952 6.07034 130.478 7.35214 130.596C8.63396 130.713 10.2654 131.065 11.4306 131.065C12.2463 130.948 13.2951 130.009 12.4794 128.482C12.3629 128.247 12.1298 128.13 12.1298 127.895C12.1298 127.778 12.1298 127.425 12.1298 126.956C12.1298 126.486 12.3629 126.251 12.4794 126.017V125.899C12.4794 126.369 12.7125 126.838 12.9455 127.308C13.1786 127.778 13.2951 128.13 13.2951 128.482C13.2951 128.717 13.1786 128.952 13.062 129.187C12.9455 129.657 12.7125 130.126 12.9455 130.713L13.062 130.831C13.1786 131.535 19.8207 131.77 20.1703 131.3C20.4034 130.831 20.8694 130.126 20.4032 129.187C20.2869 128.835 19.9372 128.6 19.7041 128.247C19.3546 127.778 18.8885 127.308 18.7719 126.838C18.6554 126.604 18.6554 126.251 18.6554 126.017C18.6554 125.782 18.4223 124.607 18.3058 124.373C18.3058 124.255 17.4901 122.964 17.6067 121.32C17.7232 119.676 18.8885 118.384 19.005 118.267C19.5876 117.562 25.0645 115.331 25.5305 115.096L25.6471 114.979C25.6471 115.801 26.4628 117.445 26.5793 117.562C26.8124 118.384 26.6959 119.558 26.5793 120.263C26.5793 120.732 25.9967 122.376 25.8802 122.846C25.7636 123.316 25.7636 124.96 25.6471 125.195C25.6471 125.429 25.1811 126.251 25.0645 126.604C24.948 127.191 25.0645 127.66 25.1811 128.13C25.1811 128.247 25.1811 128.365 25.1811 128.365C24.8314 129.069 24.1323 129.891 25.0645 130.713C25.0645 130.713 29.2594 131.653 31.9396 130.361C32.0561 130.361 32.0561 130.126 32.0561 130.009C31.9396 129.657 31.5901 128.717 31.5901 128.482C31.5901 128.365 31.4735 128.365 31.4735 128.247C31.357 128.13 30.5413 127.778 30.4248 127.543C30.0751 126.369 31.2404 124.138 31.2404 124.02C31.5901 123.433 32.5223 120.263 32.5223 119.911C32.6388 119.206 32.7554 118.501 32.8718 117.914C33.1049 119.206 33.2214 120.615 33.2214 121.907C33.2214 122.376 33.1049 122.846 33.1049 123.198C32.9883 123.903 32.8719 124.607 32.9883 125.429C32.9883 125.547 33.1049 125.664 33.1049 125.782C33.1049 125.899 33.2214 126.017 33.2214 126.134C33.2214 126.604 33.1049 126.956 32.9883 127.308C32.8719 127.66 32.7554 128.13 32.7554 128.6V128.717C32.8719 129.304 33.5711 129.774 34.1537 129.774C34.2702 129.774 37.0669 130.009 39.5141 129.539C40.0966 129.422 40.0966 128.835 39.9801 128.365C39.747 127.66 38.8148 126.838 38.1156 126.604C37.9991 126.486 37.5331 125.782 37.5331 125.429C37.5331 125.077 37.6496 124.725 37.8825 124.373C37.9991 124.02 38.3487 123.081 38.4653 122.142C38.5818 121.202 38.3487 118.032 38.3487 117.445C38.3487 116.505 38.5818 112.865 38.5818 112.161C38.5818 111.926 38.5818 106.407 38.5818 106.055C38.6982 105.937 38.8148 105.703 39.0479 105.585C39.3975 105.35 39.747 104.998 39.8635 104.528C39.9801 104.176 39.9801 103.824 39.8635 103.589C39.8635 103.472 39.8635 103.472 39.8635 103.354C39.9801 103.472 40.0966 103.589 40.3297 103.706C40.6792 103.941 41.0289 104.059 41.3785 104.176C41.8445 104.294 42.3107 104.528 42.4273 104.763C42.6602 104.998 42.4273 105.585 42.3107 106.055C42.1942 106.29 42.0776 107.347 43.0098 107.347C43.5924 107.347 43.9421 106.877 44.2917 106.407V106.525C44.4081 107.581 44.5247 108.521 44.8743 109.46C45.1074 110.047 46.0396 111.691 46.2727 111.926C46.5056 112.396 47.5544 114.039 47.671 114.274C47.7875 114.392 49.3023 117.445 49.5354 118.032C49.652 118.501 49.8851 119.089 49.8851 119.558C49.8851 119.793 49.5354 120.732 49.4189 120.85C49.3023 121.085 49.1859 121.085 49.0694 121.085C48.9528 121.085 48.7197 121.085 48.6032 120.967C48.3701 120.85 48.1372 120.85 47.9041 120.85C47.5544 120.85 47.3213 120.967 47.0884 121.202C47.0884 121.32 46.9718 121.32 46.9718 121.437C46.9718 121.907 47.2049 122.142 47.3213 122.376C47.0884 122.494 46.7387 122.729 46.7387 123.433C46.7387 123.551 46.8553 123.785 47.0884 123.785C47.2049 123.785 47.3213 123.785 47.4379 123.785C48.9528 123.785 50.3511 122.964 50.9338 122.494C51.5164 122.142 51.866 121.789 52.2155 121.32C52.2155 121.202 52.2155 121.202 52.2155 121.085C52.2155 120.615 52.2155 120.263 52.2155 119.793C52.2155 119.089 52.3321 118.501 52.099 117.68C52.2155 117.21 52.0991 116.858 51.9826 116.388C51.9826 116.271 51.9826 116.153 51.866 116.153C51.633 114.979 51.2833 114.392 50.9338 113.57L50.8173 113.335C50.3511 112.278 49.8851 111.221 49.5354 110.047C49.652 110.047 49.652 110.047 49.7685 110.165C50.0016 110.282 52.6817 111.221 52.9148 111.221C53.0312 111.221 53.0314 111.104 53.1478 111.104C53.7305 110.869 50.8173 108.638 50.7007 108.521C50.8173 108.638 52.9148 109.343 53.0312 109.343C53.6139 109.343 53.7305 108.99 53.7305 108.873C53.847 109.108 50.8173 106.407 50.3511 105.937ZM8.51743 121.554C8.40089 121.672 8.40089 121.672 8.40089 121.789C8.40089 121.554 8.16783 120.615 8.0513 120.38C7.93477 120.263 7.93478 120.145 7.81825 120.028C7.81825 119.793 7.93478 118.501 7.93478 118.267C7.93478 116.271 7.00254 112.983 6.88601 112.513C6.7695 111.808 6.7695 111.104 6.7695 110.282C7.5852 111.456 8.05131 112.748 8.28438 114.509C8.40089 114.979 8.867 116.975 8.98354 117.445C8.98354 118.384 8.63396 121.085 8.51743 121.554Z"></path>
</svg>