<?xml version="1.0" encoding="utf-8"?>
<!-- Svg Vector Icons : http://www.onlinewebfonts.com/icon -->
<!DOCTYPE svg PUBLIC "-//W3C//DTD SVG 1.1//EN" "http://www.w3.org/Graphics/SVG/1.1/DTD/svg11.dtd">
<svg version="1.1" xmlns="http://www.w3.org/2000/svg" xmlns:xlink="http://www.w3.org/1999/xlink" x="0px" y="0px" viewBox="0 0 256 256" enable-background="new 0 0 256 256" xml:space="preserve">
<metadata> Svg Vector Icons : http://www.onlinewebfonts.com/icon </metadata>
<g><g><g><g><g><path  d="M140.7,54.5c3.8,3.4,6.2,6.2,7.5,8.4l1.4,1.9l1.9-0.9c3.4-1.9,7.5-5.5,12.2-10.8c3.4-3.8,6.1-6.2,8-7.5l2.3-1.4l-1.4-1.9c-5.3-8.7-12.3-15.9-21.1-21.5l-1.9-0.9l-0.9,1.4c-5.6,6.6-11.6,12.5-17.8,17.8l-1.4,1.4l0.9,1.4C131.9,45.6,135.4,49.8,140.7,54.5z"/><path  d="M127.6,77.6c14,8.9,28.7,13.3,44,13.3c18.4,0,32.2-7,41.2-21.1l1.4-1.4l-1.4-1.4c-1.3-0.9-2.8-2.6-4.7-5.2c-5.9-6.6-10.9-11.1-15-13.6l-2.3-0.9l-0.9,2.3C184,62.3,173,68.5,157.1,68.5c-9.4,0-19-2.3-28.8-7c-9.8-4.7-17.4-10.3-22.7-16.9l-7.5-10.8l3.3,12.6C104.8,58.4,113.5,68.7,127.6,77.6z"/><path  d="M125.4,150.2c-3.6-4.2-8.7-9.8-15.2-16.6l-0.9-1.4c7.8-15,8-30.3,0.5-45.9c-7.2-15.9-18.6-25.4-34.2-28.6c-2.8-0.3-5.8-0.5-8.9-0.5c-5.3,0-10.6,1.1-15.9,3.3c-5.3,2.2-9.4,4.5-12.4,6.8c-3,2.3-6.9,5.7-11.9,10.1c-5.3,4.7-9.4,8-12.2,9.8l-2.8,2.3l3.3,1.9c0.3,0.3,2,2.6,5.2,7C27,108.8,32.5,114,36.2,114c0.9,0,4.2-3,9.8-8.9c4.4-5,6.7-7.7,7-8C64,88.4,73.1,84,80.3,84c1.3,0,2.6,0.1,4.2,0.5c4.7,0.9,7.7,3.1,8.9,6.6c0.9,3.8,0.6,8-1.2,12.9c-1.7,4.8-4,8.7-6.8,11.5c-1.6,1.6-4.2,3.6-8,6.1c-5.3,4.1-9.1,7.8-11.2,11.2l-1.4,1.4l1.9,1.4l6.1,6.1c7.2,7.2,12.6,12.3,16.4,15.5l1.9,1.9l1.4-1.9c4.7-5.6,8.4-10.3,11.2-14c0.6,0.9,1.7,2.3,3.3,4.2c2.2,3.1,3.8,5.6,4.9,7.5c1.1,1.9,2.5,4.4,4.2,7.5c1.7,3.1,2.8,5.9,3.3,8.4c0.5,2.5,0.7,5.5,0.7,8.9c0,3.4-0.6,6.9-1.9,10.3c-2.2,6.2-6.7,11.2-13.6,15c-6.9,3.8-14.7,5.3-23.4,4.7c-20-1.3-38.2-18.7-54.8-52.5c-0.9-1.6-1.9-3.9-2.8-7c-2.8-7.5-5.8-12.3-8.9-14.5l-4.7-3.3l0.9,5.6c2.5,15.3,7.2,30,14,44c6.9,14,15.1,25.9,24.8,35.6c5.9,5.6,13.3,10.1,22.3,13.6c8.9,3.4,17.7,5.2,26.5,5.2c11.9,0,22-3.3,30.4-10.1c8.4-6.7,12.8-16.9,13.1-30.7c0-9.1-1.9-17.8-5.6-26.2C132.7,160.8,129,154.5,125.4,150.2z"/><path  d="M240.4,106c-2.8-5-8.4-9.1-16.6-12.4c-8.3-3.3-15.1-4.3-20.4-3c-10.6,2.2-23,9-37,20.6c-4.4,3.4-7.8,6-10.3,7.7c-2.5,1.7-5.6,3.3-9.4,4.9c-3.8,1.6-7.3,2.3-10.8,2.3c-3.8,0-7.5-0.6-11.2-1.9l-6.1-1.9l3.3,5.6c7.5,12.5,16.5,18.7,27.2,18.7c7.2,0,16.1-3.3,26.7-9.8l1.9,6.1c2.5,7.2,8,14.5,16.6,21.8c8.6,7.3,16.9,11,25.1,11h1.4c7.8-0.3,14-4.5,18.7-12.6c4.4-7.8,6.6-17.7,6.6-29.7C246,121.4,244.2,112.2,240.4,106z M226.4,133.6c-2.5,4.4-6.2,8-11.2,11c-5,3-10.1,4.5-15.5,4.5c-7.2,0-13.1-2.8-17.8-8.4l-4.2-4.7c2.2-1.6,5.6-3.9,10.3-7c17.8-11.9,30.4-17.2,37.9-15.9C230,119.9,230.1,126.7,226.4,133.6z"/></g></g></g><g></g><g></g><g></g><g></g><g></g><g></g><g></g><g></g><g></g><g></g><g></g><g></g><g></g><g></g><g></g></g></g>
</svg>