<?xml version="1.0" encoding="UTF-8"?>
<!DOCTYPE svg PUBLIC "-//W3C//DTD SVG 1.1//EN" "http://www.w3.org/Graphics/SVG/1.1/DTD/svg11.dtd">
<svg xmlns="http://www.w3.org/2000/svg" version="1.1" width="212px" height="186px" viewBox="220 0 1800 2000" style="shape-rendering:geometricPrecision; text-rendering:geometricPrecision; image-rendering:optimizeQuality; fill-rule:evenodd; clip-rule:evenodd">
<g><path style="opacity:1" d="M 1009.5,128.5 C 1008.34,157.33 1008.17,186.33 1009,215.5C 1009.79,214.255 1010.29,212.922 1010.5,211.5C 1010.96,209.243 1011.96,207.243 1013.5,205.5C 1025.83,210 1038.17,214.5 1050.5,219C 1052.83,219.667 1055.17,219.667 1057.5,219C 1074.83,212.667 1092.17,206.333 1109.5,200C 1112.36,196.642 1115.03,193.142 1117.5,189.5C 1107.69,175.195 1097.69,161.028 1087.5,147C 1071.91,141.193 1056.24,135.693 1040.5,130.5C 1041.04,125.757 1042.88,121.757 1046,118.5C 1059.08,123.47 1072.24,128.136 1085.5,132.5C 1085.56,133.043 1085.89,133.376 1086.5,133.5C 1087.5,118.515 1087.83,103.515 1087.5,88.5C 1091.5,88.5 1095.5,88.5 1099.5,88.5C 1099.33,105.17 1099.5,121.837 1100,138.5C 1108.35,151.224 1117.19,163.557 1126.5,175.5C 1135.81,163.557 1144.65,151.224 1153,138.5C 1153.5,121.837 1153.67,105.17 1153.5,88.5C 1157.5,88.5 1161.5,88.5 1165.5,88.5C 1165.17,103.515 1165.5,118.515 1166.5,133.5C 1167.11,133.376 1167.44,133.043 1167.5,132.5C 1181.11,127.797 1194.61,122.797 1208,117.5C 1209.79,121.046 1211.29,124.713 1212.5,128.5C 1197.14,135.128 1181.47,141.294 1165.5,147C 1156,160.5 1146.5,174 1137,187.5C 1136.33,188.833 1136.33,190.167 1137,191.5C 1139.03,195.408 1141.87,198.575 1145.5,201C 1161.91,206.803 1178.24,212.803 1194.5,219C 1196.83,219.667 1199.17,219.667 1201.5,219C 1213.95,214.361 1226.45,209.861 1239,205.5C 1239.77,205.645 1240.44,205.978 1241,206.5C 1242,209.5 1243,212.5 1244,215.5C 1244.98,185.747 1244.65,156.081 1243,126.5C 1229.2,106.403 1215.03,86.5692 1200.5,67C 1185.42,61.8637 1170.42,56.5304 1155.5,51C 1154.99,46.5113 1156.16,42.3447 1159,38.5C 1172.52,43.3967 1186.02,48.3967 1199.5,53.5C 1200.5,38.5148 1200.83,23.5148 1200.5,8.5C 1204.83,8.5 1209.17,8.5 1213.5,8.5C 1213.33,25.5033 1213.5,42.5033 1214,59.5C 1226.92,78.342 1240.09,97.0087 1253.5,115.5C 1267.22,97.2725 1280.38,78.6058 1293,59.5C 1293.5,42.5033 1293.67,25.5033 1293.5,8.5C 1297.83,8.5 1302.17,8.5 1306.5,8.5C 1306.17,23.5148 1306.5,38.5148 1307.5,53.5C 1320.96,48.4017 1334.46,43.4017 1348,38.5C 1350.29,41.8458 1352.13,45.5125 1353.5,49.5C 1337.96,55.6254 1322.29,61.4587 1306.5,67C 1292,87.5 1277.5,108 1263,128.5C 1262.33,166.833 1262.33,205.167 1263,243.5C 1294.51,287.871 1326.01,332.204 1357.5,376.5C 1388.86,332.305 1420.03,287.972 1451,243.5C 1451.67,205.167 1451.67,166.833 1451,128.5C 1436.87,107.737 1422.37,87.2367 1407.5,67C 1392.42,61.8637 1377.42,56.5304 1362.5,51C 1361.99,46.5113 1363.16,42.3447 1366,38.5C 1379.52,43.3967 1393.02,48.3967 1406.5,53.5C 1407.5,38.5148 1407.83,23.5148 1407.5,8.5C 1411.83,8.5 1416.17,8.5 1420.5,8.5C 1420.33,25.5033 1420.5,42.5033 1421,59.5C 1434.36,78.028 1447.53,96.6947 1460.5,115.5C 1473.83,97.3296 1487,78.9962 1500,60.5C 1500.5,43.1699 1500.67,25.8365 1500.5,8.5C 1504.83,8.5 1509.17,8.5 1513.5,8.5C 1513.17,23.5148 1513.5,38.5148 1514.5,53.5C 1527.96,48.4017 1541.46,43.4017 1555,38.5C 1557.33,41.8288 1559.16,45.4955 1560.5,49.5C 1544.96,55.6254 1529.29,61.4587 1513.5,67C 1499.12,87.5878 1484.62,108.088 1470,128.5C 1469.17,164.505 1469.33,200.505 1470.5,236.5C 1504.77,224.413 1538.77,211.747 1572.5,198.5C 1586.33,178.833 1600.17,159.167 1614,139.5C 1614.5,122.503 1614.67,105.503 1614.5,88.5C 1618.5,88.5 1622.5,88.5 1626.5,88.5C 1626.5,103.5 1626.5,118.5 1626.5,133.5C 1627.79,133.737 1628.79,133.404 1629.5,132.5C 1642.19,127.547 1655.02,122.88 1668,118.5C 1669.26,118.759 1670.26,119.426 1671,120.5C 1672.32,123.43 1672.98,126.43 1673,129.5C 1658.26,135.192 1643.43,140.692 1628.5,146C 1614.95,163.887 1601.78,182.054 1589,200.5C 1588.02,201.759 1587.68,203.092 1588,204.5C 1609.91,210.646 1631.91,216.646 1654,222.5C 1656.35,221.496 1658.68,220.496 1661,219.5C 1661.5,208.172 1661.67,196.838 1661.5,185.5C 1665.5,185.5 1669.5,185.5 1673.5,185.5C 1673.17,195.522 1673.5,205.522 1674.5,215.5C 1675.11,215.376 1675.44,215.043 1675.5,214.5C 1683.6,211.41 1691.77,208.41 1700,205.5C 1701.65,205.82 1702.65,206.82 1703,208.5C 1704.14,211.432 1704.98,214.432 1705.5,217.5C 1695.42,220.7 1685.42,224.2 1675.5,228C 1672.87,231.858 1673.04,235.691 1676,239.5C 1688.42,257.343 1701.09,275.01 1714,292.5C 1727.33,273.833 1740.67,255.167 1754,236.5C 1754.5,219.503 1754.67,202.503 1754.5,185.5C 1758.5,185.5 1762.5,185.5 1766.5,185.5C 1766.5,200.5 1766.5,215.5 1766.5,230.5C 1780.62,225.905 1794.62,220.905 1808.5,215.5C 1810.74,218.88 1812.41,222.546 1813.5,226.5C 1798.4,232.815 1783.06,238.648 1767.5,244C 1752.69,264.479 1738.02,284.979 1723.5,305.5C 1722.17,341.669 1722.17,378.002 1723.5,414.5C 1724.11,414.376 1724.44,414.043 1724.5,413.5C 1758.63,401.515 1792.46,388.848 1826,375.5C 1839.67,355.833 1853.33,336.167 1867,316.5C 1867.5,299.503 1867.67,282.503 1867.5,265.5C 1871.83,265.5 1876.17,265.5 1880.5,265.5C 1880.33,280.504 1880.5,295.504 1881,310.5C 1895,305.167 1909,299.833 1923,294.5C 1924.22,298.61 1925.72,302.61 1927.5,306.5C 1911.8,312.233 1896.13,318.067 1880.5,324C 1866.4,342.75 1853.24,361.917 1841,381.5C 1862.88,387.902 1884.88,393.902 1907,399.5C 1923.08,393.531 1939.24,387.864 1955.5,382.5C 1956.09,385.945 1957.09,389.279 1958.5,392.5C 1958.17,393.167 1957.83,393.833 1957.5,394.5C 1943.79,399.568 1930.13,404.735 1916.5,410C 1926.4,421.147 1936.07,432.481 1945.5,444C 1942.63,447.204 1939.46,450.037 1936,452.5C 1925.17,439.667 1914.33,426.833 1903.5,414C 1879.27,407.735 1855.11,401.235 1831,394.5C 1795.42,407.136 1759.92,419.97 1724.5,433C 1692.97,477.695 1661.64,522.528 1630.5,567.5C 1680.64,581.786 1730.97,595.62 1781.5,609C 1784.44,610.124 1787.44,610.458 1790.5,610C 1825.17,597.333 1859.83,584.667 1894.5,572C 1909.37,551.763 1923.87,531.263 1938,510.5C 1938.5,493.837 1938.67,477.17 1938.5,460.5C 1942.5,460.5 1946.5,460.5 1950.5,460.5C 1950.17,475.515 1950.5,490.515 1951.5,505.5C 1952.11,505.376 1952.44,505.043 1952.5,504.5C 1966.06,499.312 1979.73,494.312 1993.5,489.5C 1995.61,493.308 1996.77,497.308 1997,501.5C 1981.52,507.328 1966.02,513.162 1950.5,519C 1937.62,537.92 1924.62,556.754 1911.5,575.5C 1933.01,582.337 1954.84,588.337 1977,593.5C 1992.85,588.745 2008.51,583.411 2024,577.5C 2025.65,577.82 2026.65,578.82 2027,580.5C 2028.43,583.353 2029.26,586.353 2029.5,589.5C 2015.27,593.408 2001.6,598.574 1988.5,605C 1997.82,616.322 2007.15,627.655 2016.5,639C 2013.32,641.514 2010.16,644.014 2007,646.5C 1995.82,634.316 1984.98,621.816 1974.5,609C 1950.36,601.805 1926.03,595.305 1901.5,589.5C 1867.64,601.097 1833.97,613.263 1800.5,626C 1823.46,653.96 1846.79,681.626 1870.5,709C 1893.94,715.368 1917.44,721.534 1941,727.5C 1956.85,722.745 1972.51,717.411 1988,711.5C 1990.03,712.52 1991.36,714.187 1992,716.5C 1993.31,718.686 1993.48,720.853 1992.5,723C 1981.58,727.197 1970.58,731.197 1959.5,735C 1956.78,735.782 1954.45,737.116 1952.5,739C 1961.82,750.322 1971.15,761.655 1980.5,773C 1977.35,775.312 1974.35,777.812 1971.5,780.5C 1960.16,768.322 1949.16,755.822 1938.5,743C 1916.39,736.579 1894.22,730.412 1872,724.5C 1873.08,747.518 1874.74,770.518 1877,793.5C 1887.1,806.018 1897.43,818.352 1908,830.5C 1908.67,831.5 1908.67,832.5 1908,833.5C 1905.44,836.192 1902.61,838.525 1899.5,840.5C 1889.8,829.142 1880.14,817.808 1870.5,806.5C 1863,819.5 1855.5,832.5 1848,845.5C 1844.83,843.248 1841.5,841.248 1838,839.5C 1838.03,837.402 1838.7,835.402 1840,833.5C 1847,821.5 1854,809.5 1861,797.5C 1861.67,791.167 1861.67,784.833 1861,778.5C 1859.16,759.514 1857.49,740.514 1856,721.5C 1833.33,694.167 1810.67,666.833 1788,639.5C 1785.76,636.923 1783.26,634.756 1780.5,633C 1725.65,618.164 1670.81,603.331 1616,588.5C 1536.11,618.575 1455.95,648.075 1375.5,677C 1302.26,783.18 1228.26,889.347 1153.5,995.5C 1154.32,996.386 1155.32,996.719 1156.5,996.5C 1156.5,1194.5 1156.5,1392.5 1156.5,1590.5C 1136.5,1590.5 1116.5,1590.5 1096.5,1590.5C 1096.5,1392.5 1096.5,1194.5 1096.5,996.5C 1097.87,996.657 1099.21,996.49 1100.5,996C 1026.5,890.667 952.5,785.333 878.5,680C 879.167,679.333 879.833,678.667 880.5,678C 798.799,649.045 717.465,619.212 636.5,588.5C 581.844,603.331 527.177,618.164 472.5,633C 469.705,634.793 467.205,636.96 465,639.5C 443.043,666.459 420.71,693.126 398,719.5C 394.496,745.393 392.496,771.393 392,797.5C 399.833,811.167 407.667,824.833 415.5,838.5C 412.606,840.867 409.44,842.867 406,844.5C 405.228,844.355 404.561,844.022 404,843.5C 397.033,831.037 389.866,818.704 382.5,806.5C 372.863,817.808 363.196,829.142 353.5,840.5C 349.895,838.528 346.895,835.861 344.5,832.5C 355.19,819.645 365.69,806.645 376,793.5C 377.881,770.831 379.714,748.165 381.5,725.5C 359.391,730.361 337.391,735.861 315.5,742C 304.145,754.554 293.145,767.387 282.5,780.5C 279.025,778.192 275.692,775.692 272.5,773C 281.291,761.873 290.458,751.04 300,740.5C 300.483,739.552 300.649,738.552 300.5,737.5C 287.011,733.17 273.678,728.336 260.5,723C 259.978,722.439 259.645,721.772 259.5,721C 261.007,717.979 262.007,714.812 262.5,711.5C 278.544,716.626 294.544,721.959 310.5,727.5C 334.499,721.334 358.499,715.167 382.5,709C 406.209,681.626 429.542,653.96 452.5,626C 418.806,613.435 384.972,601.269 351,589.5C 327.077,595.439 303.244,601.605 279.5,608C 268.618,620.926 257.618,633.76 246.5,646.5C 243.025,644.192 239.692,641.692 236.5,639C 245.979,627.354 255.645,615.854 265.5,604.5C 251.622,599.097 237.622,594.097 223.5,589.5C 224.5,585.5 225.5,581.5 226.5,577.5C 242.824,582.83 259.157,588.163 275.5,593.5C 297.572,587.815 319.572,581.815 341.5,575.5C 328.87,556.406 315.87,537.572 302.5,519C 286.828,513.555 271.328,507.721 256,501.5C 256.015,498.43 256.682,495.43 258,492.5C 258.519,491.484 259.353,490.818 260.5,490.5C 273.849,495.177 287.183,499.844 300.5,504.5C 300.56,505.043 300.893,505.376 301.5,505.5C 302.499,490.515 302.833,475.515 302.5,460.5C 306.5,460.5 310.5,460.5 314.5,460.5C 314.333,477.17 314.5,493.837 315,510.5C 328.667,530.167 342.333,549.833 356,569.5C 357.214,571.049 358.714,572.215 360.5,573C 395.064,585.782 429.73,598.282 464.5,610.5C 517.321,596.463 569.988,582.13 622.5,567.5C 591.862,523.029 561.028,478.695 530,434.5C 494.037,420.678 457.87,407.345 421.5,394.5C 397.58,401.186 373.58,407.686 349.5,414C 338.667,426.833 327.833,439.667 317,452.5C 313.535,450.037 310.369,447.204 307.5,444C 316.93,432.481 326.596,421.147 336.5,410C 322.833,405 309.167,400 295.5,395C 295.099,390.66 296.099,386.494 298.5,382.5C 313.962,388.265 329.462,393.932 345,399.5C 363.55,394.791 382.05,389.958 400.5,385C 404.655,383.799 408.655,382.299 412.5,380.5C 399.361,361.528 386.028,342.695 372.5,324C 357.833,318.667 343.167,313.333 328.5,308C 327.484,307.481 326.818,306.647 326.5,305.5C 327.149,301.695 328.649,298.361 331,295.5C 344.539,300.402 358.039,305.402 371.5,310.5C 372.499,295.515 372.833,280.515 372.5,265.5C 376.833,265.5 381.167,265.5 385.5,265.5C 385.333,282.503 385.5,299.503 386,316.5C 399.667,336.167 413.333,355.833 427,375.5C 460.381,389.24 494.214,401.907 528.5,413.5C 528.56,414.043 528.893,414.376 529.5,414.5C 530.83,378.002 530.83,341.669 529.5,305.5C 515.053,285.45 500.72,265.284 486.5,245C 470.983,239.162 455.483,233.328 440,227.5C 440.502,223.327 441.835,219.327 444,215.5C 456.92,220.862 470.087,225.529 483.5,229.5C 484.209,230.404 485.209,230.737 486.5,230.5C 486.5,215.5 486.5,200.5 486.5,185.5C 490.5,185.5 494.5,185.5 498.5,185.5C 498.333,202.503 498.5,219.503 499,236.5C 512.167,255 525.333,273.5 538.5,292C 540.113,292.089 541.28,291.255 542,289.5C 554.333,271.833 566.667,254.167 579,236.5C 579.497,233.854 579.664,231.187 579.5,228.5C 571.09,225.974 562.757,223.141 554.5,220C 551.784,219.218 549.45,217.884 547.5,216C 548.321,212.005 549.988,208.505 552.5,205.5C 560.781,208.704 569.114,211.704 577.5,214.5C 577.56,215.043 577.893,215.376 578.5,215.5C 579.499,205.522 579.832,195.522 579.5,185.5C 583.5,185.5 587.5,185.5 591.5,185.5C 591.333,196.838 591.5,208.172 592,219.5C 594.152,220.885 596.485,221.885 599,222.5C 621.379,215.947 643.879,209.78 666.5,204C 652.833,185 639.167,166 625.5,147C 610.238,141.358 595.072,135.525 580,129.5C 579.783,124.936 581.45,121.27 585,118.5C 598.088,123.473 611.255,128.14 624.5,132.5C 624.56,133.043 624.893,133.376 625.5,133.5C 626.499,118.515 626.833,103.515 626.5,88.5C 630.5,88.5 634.5,88.5 638.5,88.5C 638.333,105.503 638.5,122.503 639,139.5C 652.833,159.167 666.667,178.833 680.5,198.5C 684.835,201.336 689.501,203.503 694.5,205C 724.013,216.004 753.679,226.504 783.5,236.5C 783.667,200.498 783.5,164.498 783,128.5C 768.833,108.333 754.667,88.1667 740.5,68C 724.349,62.1181 708.349,55.9515 692.5,49.5C 693.981,45.7147 695.647,42.048 697.5,38.5C 711.383,43.905 725.383,48.905 739.5,53.5C 739.5,38.5 739.5,23.5 739.5,8.5C 743.833,8.5 748.167,8.5 752.5,8.5C 752.333,25.8365 752.5,43.1699 753,60.5C 766.005,78.9962 779.172,97.3296 792.5,115.5C 805.472,96.6947 818.639,78.028 832,59.5C 832.5,42.5033 832.667,25.5033 832.5,8.5C 836.833,8.5 841.167,8.5 845.5,8.5C 845.333,23.5037 845.5,38.5037 846,53.5C 859.368,48.21 872.868,43.21 886.5,38.5C 889.012,41.5047 890.679,45.0047 891.5,49C 891.095,49.9454 890.428,50.6121 889.5,51C 874.833,56.3333 860.167,61.6667 845.5,67C 830.631,87.2367 816.131,107.737 802,128.5C 801.333,166.833 801.333,205.167 802,243.5C 832.972,287.972 864.139,332.305 895.5,376.5C 927.479,332.556 958.979,288.222 990,243.5C 990.667,205.167 990.667,166.833 990,128.5C 975.833,108.333 961.667,88.1667 947.5,68C 931.5,62 915.5,56 899.5,50C 900.772,45.8252 902.605,41.9919 905,38.5C 918.384,43.795 931.884,48.795 945.5,53.5C 946.499,38.5148 946.833,23.5148 946.5,8.5C 950.833,8.5 955.167,8.5 959.5,8.5C 959.333,25.5033 959.5,42.5033 960,59.5C 972.933,78.3795 986.1,97.0462 999.5,115.5C 1012.91,97.0087 1026.08,78.342 1039,59.5C 1039.5,42.5033 1039.67,25.5033 1039.5,8.5C 1043.83,8.5 1048.17,8.5 1052.5,8.5C 1052.33,23.5037 1052.5,38.5037 1053,53.5C 1067.02,48.0708 1081.19,43.0708 1095.5,38.5C 1096.09,41.9453 1097.09,45.2787 1098.5,48.5C 1098.17,49.1667 1097.83,49.8333 1097.5,50.5C 1082.54,56.0984 1067.54,61.5984 1052.5,67C 1037.95,87.3798 1023.61,107.88 1009.5,128.5 Z"/></g>
<g><path style="opacity:1" d="M 638.5,88.5 C 634.5,88.5 630.5,88.5 626.5,88.5C 626.833,103.515 626.499,118.515 625.5,133.5C 624.893,133.376 624.56,133.043 624.5,132.5C 625.496,117.676 625.829,102.676 625.5,87.5C 630.032,87.1818 634.366,87.5151 638.5,88.5 Z"/></g>
<g><path style="opacity:1" d="M 1087.5,88.5 C 1087.83,103.515 1087.5,118.515 1086.5,133.5C 1085.89,133.376 1085.56,133.043 1085.5,132.5C 1086.17,117.833 1086.83,103.167 1087.5,88.5 Z"/></g>
<g><path style="opacity:1" d="M 1165.5,88.5 C 1166.17,103.167 1166.83,117.833 1167.5,132.5C 1167.44,133.043 1167.11,133.376 1166.5,133.5C 1165.5,118.515 1165.17,103.515 1165.5,88.5 Z"/></g>
<g><path style="opacity:1" d="M 1614.5,88.5 C 1618.63,87.5151 1622.97,87.1818 1627.5,87.5C 1626.85,102.871 1627.52,117.871 1629.5,132.5C 1628.79,133.404 1627.79,133.737 1626.5,133.5C 1626.5,118.5 1626.5,103.5 1626.5,88.5C 1622.5,88.5 1618.5,88.5 1614.5,88.5 Z"/></g>
<g><path style="opacity:1" d="M 1009.5,128.5 C 1009.17,156.338 1009.5,184.005 1010.5,211.5C 1010.29,212.922 1009.79,214.255 1009,215.5C 1008.17,186.33 1008.34,157.33 1009.5,128.5 Z"/></g>
<g><path style="opacity:1" d="M 486.5,185.5 C 486.5,200.5 486.5,215.5 486.5,230.5C 485.209,230.737 484.209,230.404 483.5,229.5C 485.161,215.028 486.161,200.362 486.5,185.5 Z"/></g>
<g><path style="opacity:1" d="M 579.5,185.5 C 579.832,195.522 579.499,205.522 578.5,215.5C 577.893,215.376 577.56,215.043 577.5,214.5C 578.167,204.833 578.833,195.167 579.5,185.5 Z"/></g>
<g><path style="opacity:1" d="M 1673.5,185.5 C 1674.17,195.167 1674.83,204.833 1675.5,214.5C 1675.44,215.043 1675.11,215.376 1674.5,215.5C 1673.5,205.522 1673.17,195.522 1673.5,185.5 Z"/></g>
<g><path style="opacity:0.9" fill="#FFF" d="M 880.5,396.5 C 880.17,479.103 879.17,561.436 877.5,643.5C 800.04,616.181 722.873,588.181 646,559.5C 613.667,513.167 581.333,466.833 549,420.5C 548.333,382.167 548.333,343.833 549,305.5C 563.972,283.188 580.472,262.021 598.5,242C 623.31,231.619 648.81,223.452 675,217.5C 710.576,230.136 746.076,242.97 781.5,256C 814.879,302.6 847.879,349.433 880.5,396.5 Z"/></g>
<g><path style="opacity:0.9" fill="#FFF" d="M 1704.5,305.5 C 1704.83,344.239 1704.49,382.906 1703.5,421.5C 1671.05,467.55 1638.72,513.717 1606.5,560C 1528.78,588.074 1451.11,616.24 1373.5,644.5C 1373.83,561.763 1373.5,479.096 1372.5,396.5C 1405.16,349.862 1437.82,303.196 1470.5,256.5C 1505.45,243.571 1540.45,230.738 1575.5,218C 1579.85,218.166 1584.19,218.833 1588.5,220C 1610.85,226.172 1632.85,233.506 1654.5,242C 1672.75,262.055 1689.42,283.222 1704.5,305.5 Z"/></g>
<g><path style="opacity:1" d="M 1008.5,217.5 C 1017.5,220.557 1026.5,223.724 1035.5,227C 1026.5,230.276 1017.5,233.443 1008.5,236.5C 1008.5,230.167 1008.5,223.833 1008.5,217.5 Z"/></g>
<g><path style="opacity:1" d="M 1241.5,217.5 C 1242.5,217.5 1243.5,217.5 1244.5,217.5C 1244.5,223.833 1244.5,230.167 1244.5,236.5C 1235.35,233.837 1226.35,230.671 1217.5,227C 1225.64,223.904 1233.64,220.737 1241.5,217.5 Z"/></g>
<g><path style="opacity:0.9" fill="#FFF" d="M 1122.5,220.5 C 1145.08,225.062 1167.41,230.729 1189.5,237.5C 1200.2,249.859 1210.86,262.192 1221.5,274.5C 1224.96,272.541 1227.96,270.041 1230.5,267C 1224.85,260.011 1219.18,253.011 1213.5,246C 1223.16,248.981 1232.83,252.314 1242.5,256C 1275.37,301.57 1307.87,347.403 1340,393.5C 1341.49,480.751 1341.99,568.085 1341.5,655.5C 1340.32,655.281 1339.32,655.614 1338.5,656.5C 1268.19,757.467 1197.52,858.133 1126.5,958.5C 1055.48,858.133 984.81,757.467 914.5,656.5C 913.675,655.614 912.675,655.281 911.5,655.5C 911.333,568.833 911.5,482.166 912,395.5C 944.5,349 977,302.5 1009.5,256C 1019.84,252.555 1030.01,248.721 1040,244.5C 1040.67,245.167 1040.67,245.833 1040,246.5C 1033.98,253.019 1028.15,259.685 1022.5,266.5C 1024.88,269.881 1027.88,272.547 1031.5,274.5C 1042.39,262.394 1053.06,250.06 1063.5,237.5C 1083.27,231.692 1102.93,226.025 1122.5,220.5 Z"/></g>
<g><path style="opacity:1" d="M 529.5,305.5 C 530.83,341.669 530.83,378.002 529.5,414.5C 528.893,414.376 528.56,414.043 528.5,413.5C 529.498,377.671 529.832,341.671 529.5,305.5 Z"/></g>
<g><path style="opacity:1" d="M 1704.5,305.5 C 1705.17,324.664 1705.5,343.997 1705.5,363.5C 1705.5,383.178 1704.83,402.512 1703.5,421.5C 1704.49,382.906 1704.83,344.239 1704.5,305.5 Z"/></g>
<g><path style="opacity:1" d="M 1723.5,305.5 C 1723.17,341.671 1723.5,377.671 1724.5,413.5C 1724.44,414.043 1724.11,414.376 1723.5,414.5C 1722.17,378.002 1722.17,341.669 1723.5,305.5 Z"/></g>
<g><path style="opacity:1" d="M 880.5,396.5 C 880.507,478.921 880.507,561.588 880.5,644.5C 879.209,644.737 878.209,644.404 877.5,643.5C 879.17,561.436 880.17,479.103 880.5,396.5 Z"/></g>
<g><path style="opacity:1" d="M 1372.5,396.5 C 1373.5,479.096 1373.83,561.763 1373.5,644.5C 1372.83,562.294 1372.16,479.961 1371.5,397.5C 1371.62,396.893 1371.96,396.56 1372.5,396.5 Z"/></g>
<g><path style="opacity:1" d="M 314.5,460.5 C 310.5,460.5 306.5,460.5 302.5,460.5C 302.833,475.515 302.499,490.515 301.5,505.5C 300.893,505.376 300.56,505.043 300.5,504.5C 301.496,489.676 301.829,474.676 301.5,459.5C 306.032,459.182 310.366,459.515 314.5,460.5 Z"/></g>
<g><path style="opacity:1" d="M 1938.5,460.5 C 1942.63,459.515 1946.97,459.182 1951.5,459.5C 1951.17,474.676 1951.5,489.676 1952.5,504.5C 1952.44,505.043 1952.11,505.376 1951.5,505.5C 1950.5,490.515 1950.17,475.515 1950.5,460.5C 1946.5,460.5 1942.5,460.5 1938.5,460.5 Z"/></g>
</svg>
