<svg width="130" height="160" viewBox="0 0 31 50" xmlns="http://www.w3.org/2000/svg">
	<path d="M30.1,16.6L16.1,5.1c-0.4-0.3-0.7-0.3-1.1,0L1.1,16.6c-0.3,0.3-0.5,0.6-0.5,1v23.5c0,0.5,0.3,0.8,0.8,0.8h28.3
		c0.5,0,0.8-0.3,0.8-0.8V17.6C30.6,17.2,30.4,16.9,30.1,16.6z M26,38H5.2V27.2c0.7-1.5,2.1-2.4,4-2.4c2.3,0,3.7,1.4,4.4,3.8
		c1.2,4.3,4,6.6,8,6.6c1.9,0,3.4-0.4,4.5-1.2V38z M26,28.6c-0.7,1.5-2.1,2.4-4,2.4c-2.4,0-3.8-1.4-4.4-3.8c-1.1-4.4-3.9-6.7-8-6.7
		c-1.9,0-3.4,0.4-4.5,1.2v-2.6l10.4-8.7L26,19.1V28.6z"/>
</svg>
