<?xml version="1.0" encoding="UTF-8"?>
<svg width="108px" height="108" viewBox="0 0 27 27" version="1.1" xmlns="http://www.w3.org/2000/svg" xmlns:xlink="http://www.w3.org/1999/xlink">
    <path d="M2.07617019,6.30570998 L8.91087231,2.3349538 L8.9149924,13.4701297 C8.90227385,17.5970181 11.7976266,21.2990483 15.7993148,22.2729569 L15.8888821,22.2947262 L15.8317382,22.3668147 C15.7410961,22.4856537 15.6540366,22.599318 15.546735,22.7058448 C15.1845248,23.0643245 14.7859503,23.3897934 14.3624761,23.6729728 C13.9355983,23.9582934 13.4797007,24.2032872 13.0071436,24.4006384 L13.0071436,24.4008168 C12.5256297,24.6017368 12.0224406,24.7555494 11.5120861,24.8579722 C10.9734283,24.9659265 10.5076783,25.0146398 10.0089675,25.0146398 C9.99302452,25.0146398 9.97672327,25.0146398 9.96060115,25.0146398 C9.41764413,25.0126769 8.8766576,24.9568262 8.35286798,24.8481581 C7.84305087,24.7428804 7.34093654,24.5858559 6.8604975,24.3817241 C6.39026913,24.1820532 5.93562548,23.9345612 5.50946423,23.6460288 C5.08706481,23.3596376 4.69081904,23.031849 4.33165413,22.6715849 C3.97105615,22.3104286 3.64413548,21.913585 3.36056538,21.4922955 C3.07395,21.0669019 2.82817731,20.61278 2.63005442,20.142242 C2.42870712,19.6645664 2.27429308,19.1635156 2.17111154,18.6530077 C2.05968981,18.1023514 2.04625471,17.5334946 2.04786692,17.0497522 L2.04679212,6.32283992 L2.07617019,6.30570998 Z M19.2725559,20.3383441 C19.6677268,19.2270391 19.8697907,18.1396447 19.8730151,17.1066735 L19.8730151,5.34679012 L25.0543047,2.38313177 L25.0543047,13.5195567 C25.0528716,14.0245331 25.0057592,14.5029224 24.9144006,14.940985 C24.8201758,15.3929656 24.6802716,15.8367382 24.4989874,16.2599905 C24.3202111,16.6771759 24.0995172,17.0790158 23.8431756,17.4542686 C23.5888044,17.8270233 23.296815,18.1774733 22.9752684,18.4959832 C22.6531843,18.8146715 22.2995726,19.1035608 21.9241064,19.3542646 C21.5461324,19.6072882 21.1409299,19.8248027 20.7196053,20.0007415 C20.2945188,20.1836393 19.8980939,20.3049764 19.3947257,20.4059717 C19.3777079,20.409362 19.3585405,20.4127523 19.3386565,20.4161426 L19.2388786,20.4336294 L19.2725559,20.3383441 Z M0,5.22920021 L0.00483663462,17.0442206 C-0.01164375,22.517237 4.44486721,26.983334 9.93892587,27.0001071 L9.96902048,27.0001071 C11.7146873,27.0001071 13.4324091,26.5436655 14.9364234,25.6809231 L22.2031982,21.5215591 C25.2160633,19.9646973 27.0926775,16.9009358 27.1028882,13.5249098 L27.103963,1.18510647 C27.103963,1.1499544 27.0849747,1.11712201 27.0545218,1.09945676 L27.0545218,1.09927832 L25.2744612,0.0623815377 C25.2440083,0.0445378484 25.2058526,0.0445378484 25.1750414,0.0616677902 L17.8742311,4.1660732 C17.8428825,4.18356001 17.823536,4.21674928 17.823536,4.25261509 L17.8298057,17.0984654 C17.8283726,17.6385939 17.7723035,18.1774733 17.6630313,18.7002934 C17.5569837,19.2088386 17.3997035,19.7088187 17.1951317,20.1866727 C17.1567969,20.2757128 17.1168499,20.3642175 17.0752907,20.45183 L17.0568398,20.4907292 L17.0140266,20.4851977 C16.8906029,20.4691383 16.8092758,20.4539712 16.5921646,20.4132876 L16.5346624,20.402403 C16.07769,20.3087236 15.1472648,20.0449939 14.0382424,19.3312463 C13.6625971,19.0767953 13.3105976,18.7857647 12.9913797,18.4654705 C12.6712662,18.1448194 12.3812472,17.792585 12.1295631,17.4187597 C11.8748337,17.0406519 11.6566477,16.6375629 11.4810958,16.2205559 C11.3023194,15.7960546 11.1654606,15.3512114 11.0739228,14.8992307 C10.9922374,14.4956065 10.9582018,14.0769935 10.9601723,13.4997502 L10.9601723,1.17547088 C10.9601723,1.14049724 10.9422588,1.10855704 10.9121642,1.09017804 L9.13407404,0.0143820136 C9.11813106,0.00474642135 9.1002176,-7.13747572e-05 9.082125,-7.13747572e-05 C9.06510721,-7.13747572e-05 9.04791029,0.00438954756 9.03268385,0.0131329553 L0.0499785577,5.14301519 C0.0193465385,5.16068044 0,5.19369126 0,5.22920021 L0,5.22920021 Z" mask="url(#mask-2)"></path>
</svg>