<?xml version="1.0" encoding="UTF-8"?>
<svg id="Layer_2" data-name="Layer 2" xmlns="http://www.w3.org/2000/svg" viewBox="0 0 123.19 163.75">
  <g id="Layer_1-2" data-name="Layer 1">
    <g id="Layer_2-2" data-name="Layer 2">
      <g id="Layer_1-2" data-name="Layer 1-2">
        <path d="m71.29,98.67c-3.5,3.8-7,7.6-10.81,11.12-3.7,3.54-7.82,6.61-12.27,9.15-2.45,1.36-5.05,2.43-7.75,3.2-.26.14-.36.47-.21.73.07.14.2.23.35.27l16.5,1.11c5.26.36,10.54.84,15.81.85,2.91.02,5.81-.18,8.69-.58l.84-.86c-5.11.73-11.26.43-16.4.12-5.41-.33-10.82-.72-16.23-1.09l-9.21-.62.14,1c4.91-1.46,9.52-3.8,13.61-6.9,4.21-3.16,8.14-6.68,11.75-10.51,2-2.07,4-4.2,6-6.33.47-.51-.29-1.26-.76-.76l-.05.1Z"/>
        <path d="m42.45,121.53c.18-.81-.6-1.5-1.32-1.93-.57-.38-1.23-.61-1.92-.64-.82.04-1.57.47-2,1.17-.41.68-.6,1.47-.54,2.26.06,1.29.69,2.48,1.72,3.26,1.06.75,2.46.82,3.58.16,1.1-.71,1.52-2.12,1-3.32"/>
        <path d="m83.17,119.91c4.39-4.38,8.9-8.63,12.94-13.25,2.03-2.27,3.92-4.67,5.66-7.17,1.73-2.46,3.25-5.07,4.52-7.8,1.26-2.69,2.22-5.52,2.87-8.42.65-2.85.88-5.78.69-8.7-.1-1.44-.3-2.86-.61-4.27-.33-1.37-.79-2.71-1.37-4-1.16-2.61-2.79-4.98-4.81-7-3.9-4.2-9.41-6.52-15.14-6.37-3.02.19-6.02.55-9,1.07-1.57.2-3.19.35-4.8.4-1.62.03-3.23-.05-4.84-.23-3.26-.34-6.44-1.22-9.41-2.61-2.99-1.38-5.6-3.47-7.61-6.08-1.93-2.63-3.09-5.75-3.35-9-.27-3.19.68-6.37,2.65-8.89-1.54,2.64-2.09,5.75-1.55,8.76.54,2.94,1.87,5.67,3.86,7.9,1.94,2.19,4.39,3.87,7.13,4.91,2.73,1.06,5.61,1.68,8.54,1.84,2.96.15,5.94-.03,8.86-.53,3.1-.63,6.22-1.09,9.37-1.38,3.39-.2,6.78.39,9.9,1.72,3.1,1.31,5.9,3.22,8.25,5.63,3.51,3.6,5.96,8.1,7.09,13,.35,1.62.55,3.26.61,4.91.12,3.27-.24,6.54-1.06,9.71-.79,3.13-1.96,6.15-3.48,9-3.02,5.59-6.93,10.65-11.56,15-4.54,4.24-9.33,8.2-14.35,11.85Z"/>
        <path d="m60.18,49.82c-3.42-.25-6.81.82-9.46,3-2.56,2.16-4.13,5.26-4.34,8.6,2.4-2.12,5.56-3.21,8.5-4.56s5.9-3.2,7.17-6.08"/>
        <path d="m108.94,62.18c-2.53-4.16-3.44-9.1-2.55-13.88.34-2.7,1.46-5.23,3.23-7.3,2.6-2.78,6.56-3.92,10.31-4.92-1.02,3.74-2.78,7.23-5.17,10.27-1.35,1.53-2.6,3.15-3.75,4.84-2.62,4.38-2.41,9.93-.55,14.65"/>
        <path d="m63.79,0c.6,2.48,1.01,5,1.21,7.54.22,2.51.32,5,.32,7.54.05,5.06-.44,10.11-1.45,15.07-.63-2.47-1.05-5-1.23-7.54-.22-2.51-.32-5-.31-7.54s.11-5,.33-7.53c.2-2.54.58-5.06,1.13-7.54Z"/>
        <path d="m53.77,15.7c1.68-.7,3.44-1.23,5.23-1.57,1.74-.34,3.51-.58,5.28-.72,1.77-.13,3.55-.16,5.33-.07,1.82.07,3.63.33,5.39.78-1.68.71-3.43,1.24-5.22,1.57-1.74.35-3.51.59-5.28.72-1.77.13-3.55.15-5.33.06-1.82-.07-3.63-.33-5.4-.77Z"/>
        <path d="m57.08,22.31c.63-1.55,1.43-3.03,2.39-4.41.92-1.34,1.92-2.61,3-3.82,1.08-1.21,2.25-2.34,3.49-3.39,1.27-1.1,2.66-2.05,4.15-2.83-.62,1.55-1.42,3.03-2.38,4.4-.91,1.34-1.92,2.62-3,3.83-1.09,1.21-2.26,2.35-3.51,3.4-1.27,1.1-2.66,2.04-4.14,2.82Z"/>
        <path d="m57.52,9.25c1.53.61,2.99,1.39,4.35,2.33,1.33.91,2.59,1.92,3.78,3,1.19,1.06,2.3,2.2,3.33,3.42,1.08,1.25,2.01,2.62,2.77,4.08-1.54-.61-3-1.39-4.35-2.34-1.33-.91-2.59-1.91-3.77-3-1.19-1.07-2.31-2.23-3.34-3.45-1.07-1.24-2-2.59-2.77-4.04Z"/>
        <path d="m110.13,126.74c6.58-5.23,15-19.1,12.66-20.79-3.15-2-10.29,10-17.87,15.89,5.79-5.38,8.37-9.27,12.41-15.71,2.18-3.5,4.46-9.39,1.64-10.41-1.88-.29-12,11.64-18.69,15.75s-15.07,6.25-22.84,4.53c-1.69-.38-3.6-1.2-3.95-2.83-.13-.89.07-1.79.55-2.55,2.66-4.93,8.92-6.68,14.24-8.89s10.93-6.79,9.65-12.2c-6.44,3.68-13.85,5.29-21.23,4.63-4.19-.38-8.44-1.49-12.54-.56-6.82,1.56-10.83,8.09-14.63,13.74-.44.85-1.2,1.5-2.11,1.81-.73.07-1.47-.06-2.13-.39-8.83-3.42-32.06-10.83-40.9-14.25-6.26,24.36-5.61,42.24.57,69.24,10.63-4.66,42.83-20.44,46.83-21.84,8.83-3.09,18.31,2.12,27.68,2.76,16.68,1.15,39.88-15.29,41.38-23.89-1.6-2.47-7.15,3.97-10.72,5.96Zm-81.19,2.15c1.09,1.25,2.02,2.63,2.77,4.11-1.53-.61-2.99-1.4-4.34-2.35-.58-.39-1.15-.82-1.7-1.25,0,1.64,0,3.28-.15,4.91-.15,2.53-.45,5.05-.9,7.54-.71-2.44-1.19-4.95-1.44-7.48-.17-1.57-.3-3.14-.38-4.72-.54.52-1.09,1-1.66,1.51-1.26,1.1-2.65,2.05-4.12,2.84.63-1.55,1.43-3.03,2.4-4.4.46-.68.94-1.33,1.45-2-.5,0-1-.07-1.51-.13-1.76-.17-3.49-.54-5.17-1.08,1.66-.59,3.38-1.01,5.13-1.25.54-.08,1.07-.14,1.61-.19-.22-.25-.45-.48-.67-.74-1.08-1.25-2.01-2.61-2.77-4.07,1.54.61,3.01,1.39,4.38,2.33.3.2.58.43.87.64,0-1.27.09-2.53.18-3.8.16-2.53.51-5.05,1.06-7.53.6,2.46,1.03,4.97,1.27,7.49.12,1.16.21,2.32.29,3.48l.44-.41c1.27-1.1,2.66-2.04,4.14-2.83-.63,1.55-1.43,3.02-2.39,4.39-.2.29-.42.57-.63.85.86,0,1.72.11,2.57.2,1.74.17,3.46.52,5.13,1.05-1.66.6-3.39,1.03-5.14,1.26-.65.1-1.31.17-2,.23.46.51.88.93,1.28,1.4Z"/>
      </g>
    </g>
  </g>
</svg>