<?xml version="1.0" encoding="UTF-8" standalone="no"?>
<svg
   xmlns="http://www.w3.org/2000/svg"
   version="1.1"
   width="140"
   height="140"
   viewBox="0 0 112 112">
<path d="M 111.37346,55.687998 C 111.37346,24.933866 86.439598,0 55.685465,0 24.93067,0 -0.00259973,24.933866 2.7068984e-7,55.687998 -0.00299973,86.442667 24.93067,111.37652 55.685465,111.37652 c 30.7572,0 55.687995,-24.933853 55.687995,-55.688522 M 55.685465,102.79996 c -11.800535,0 -22.576135,-4.349483 -30.842795,-11.517163 h 0.6324 2.6848 54.104128 3.6344 0.632267 c -8.266667,7.16768 -19.0452,11.517163 -30.8452,11.517163 m 0,-40.213563 17.466667,20.09067 H 38.22133 Z m 0,-13.807732 L 38.22973,28.698399 H 73.141732 Z M 21.512,23.277599 49.682265,55.682798 21.5068,88.093197 C 13.49893,79.647867 8.5729203,68.247867 8.5729203,55.687998 8.5729203,43.128132 13.49893,31.722932 21.512,23.277599 M 55.685465,8.576 c 11.8,0 22.578533,4.346399 30.8452,11.514533 h -5.906667 v 0.0027 H 30.74947 v -0.0027 h -5.9068 C 33.10933,12.922399 43.88493,8.576 55.685465,8.576 m 47.111465,47.111998 c 0,12.559869 -4.922399,23.959869 -12.932932,32.405199 L 61.687465,55.682798 89.861464,23.277599 c 8.013067,8.445333 12.935466,19.850533 12.935466,32.410399" />
</svg>